DinishCondensed-Bold.ufo
<glyph name="dollar" format="2">
  <advance width="438"/>
  <unicode hex="0024"/>
  <outline>
    <contour>
      <point x="259" y="35" type="curve"/>
      <point x="259" y="-46" type="line"/>
      <point x="172" y="-46" type="line"/>
      <point x="172" y="29" type="line"/>
      <point x="123" y="34"/>
      <point x="85" y="52"/>
      <point x="60" y="85" type="curve" smooth="yes"/>
      <point x="35" y="118"/>
      <point x="21" y="162"/>
      <point x="19" y="218" type="curve"/>
      <point x="137" y="218" type="line"/>
      <point x="138" y="190"/>
      <point x="144" y="169"/>
      <point x="155" y="155" type="curve" smooth="yes"/>
      <point x="166" y="141"/>
      <point x="181" y="134"/>
      <point x="202" y="134" type="curve" smooth="yes"/>
      <point x="223" y="134"/>
      <point x="239" y="140"/>
      <point x="249" y="153" type="curve" smooth="yes"/>
      <point x="258" y="166"/>
      <point x="263" y="186"/>
      <point x="263" y="213" type="curve" smooth="yes"/>
      <point x="263" y="234"/>
      <point x="258" y="252"/>
      <point x="247" y="265" type="curve" smooth="yes"/>
      <point x="236" y="278"/>
      <point x="218" y="290"/>
      <point x="193" y="301" type="curve" smooth="yes"/>
      <point x="142" y="324" type="line" smooth="yes"/>
      <point x="101" y="343"/>
      <point x="71" y="365"/>
      <point x="53" y="392" type="curve" smooth="yes"/>
      <point x="35" y="419"/>
      <point x="26" y="455"/>
      <point x="26" y="502" type="curve" smooth="yes"/>
      <point x="26" y="551"/>
      <point x="39" y="592"/>
      <point x="65" y="623" type="curve" smooth="yes"/>
      <point x="91" y="654"/>
      <point x="127" y="672"/>
      <point x="172" y="679" type="curve"/>
      <point x="172" y="773" type="line"/>
      <point x="259" y="773" type="line"/>
      <point x="259" y="675" type="line"/>
      <point x="296" y="665"/>
      <point x="324" y="645"/>
      <point x="345" y="614" type="curve" smooth="yes"/>
      <point x="366" y="583"/>
      <point x="377" y="543"/>
      <point x="378" y="494" type="curve"/>
      <point x="263" y="494" type="line"/>
      <point x="262" y="521"/>
      <point x="258" y="541"/>
      <point x="250" y="554" type="curve" smooth="yes"/>
      <point x="241" y="567"/>
      <point x="227" y="573"/>
      <point x="206" y="573" type="curve" smooth="yes"/>
      <point x="167" y="573"/>
      <point x="148" y="551"/>
      <point x="147" y="508" type="curve" smooth="yes"/>
      <point x="147" y="487"/>
      <point x="152" y="471"/>
      <point x="162" y="459" type="curve" smooth="yes"/>
      <point x="171" y="446"/>
      <point x="186" y="436"/>
      <point x="207" y="428" type="curve" smooth="yes"/>
      <point x="255" y="409" type="line" smooth="yes"/>
      <point x="302" y="390"/>
      <point x="335" y="365"/>
      <point x="355" y="336" type="curve" smooth="yes"/>
      <point x="375" y="306"/>
      <point x="385" y="266"/>
      <point x="385" y="216" type="curve" smooth="yes"/>
      <point x="385" y="167"/>
      <point x="374" y="127"/>
      <point x="352" y="96" type="curve" smooth="yes"/>
      <point x="330" y="65"/>
      <point x="299" y="44"/>
    </contour>
  </outline>
</glyph>
<glyph name="zero" format="2">
  <advance width="418"/>
  <unicode hex="0030"/>
  <outline>
    <contour>
      <point x="39" y="190" type="curve" smooth="yes"/>
      <point x="39" y="518" type="line" smooth="yes"/>
      <point x="39" y="585"/>
      <point x="53" y="635"/>
      <point x="81" y="668" type="curve" smooth="yes"/>
      <point x="109" y="701"/>
      <point x="152" y="718"/>
      <point x="209" y="718" type="curve" smooth="yes"/>
      <point x="267" y="718"/>
      <point x="310" y="701"/>
      <point x="338" y="668" type="curve" smooth="yes"/>
      <point x="366" y="635"/>
      <point x="380" y="585"/>
      <point x="380" y="518" type="curve" smooth="yes"/>
      <point x="380" y="190" type="line" smooth="yes"/>
      <point x="380" y="123"/>
      <point x="366" y="73"/>
      <point x="338" y="40" type="curve" smooth="yes"/>
      <point x="310" y="7"/>
      <point x="267" y="-10"/>
      <point x="209" y="-10" type="curve" smooth="yes"/>
      <point x="152" y="-10"/>
      <point x="109" y="7"/>
      <point x="81" y="40" type="curve" smooth="yes"/>
      <point x="53" y="73"/>
      <point x="39" y="123"/>
    </contour>
    <contour>
      <point x="255" y="191" type="curve" smooth="yes"/>
      <point x="255" y="517" type="line" smooth="yes"/>
      <point x="255" y="549"/>
      <point x="252" y="572"/>
      <point x="245" y="585" type="curve" smooth="yes"/>
      <point x="238" y="598"/>
      <point x="226" y="604"/>
      <point x="209" y="604" type="curve" smooth="yes"/>
      <point x="192" y="604"/>
      <point x="180" y="598"/>
      <point x="174" y="585" type="curve" smooth="yes"/>
      <point x="168" y="572"/>
      <point x="165" y="550"/>
      <point x="165" y="517" type="curve" smooth="yes"/>
      <point x="165" y="191" type="line" smooth="yes"/>
      <point x="165" y="158"/>
      <point x="168" y="136"/>
      <point x="175" y="123" type="curve" smooth="yes"/>
      <point x="181" y="110"/>
      <point x="192" y="103"/>
      <point x="209" y="103" type="curve" smooth="yes"/>
      <point x="226" y="103"/>
      <point x="238" y="110"/>
      <point x="245" y="123" type="curve" smooth="yes"/>
      <point x="252" y="136"/>
      <point x="255" y="158"/>
    </contour>
  </outline>
</glyph>
<glyph name="zero.tosf" format="2">
  <advance width="418"/>
  <unicode hex="0030"/>
  <outline>
    <contour>
      <point x="38" y="89"/>
      <point x="38" y="190" type="qcurve" smooth="yes"/>
      <point x="38" y="349" type="line" smooth="yes"/>
      <point x="38" y="449"/>
      <point x="122" y="549"/>
      <point x="208" y="549" type="qcurve" smooth="yes"/>
      <point x="295" y="549"/>
      <point x="379" y="449"/>
      <point x="379" y="349" type="qcurve" smooth="yes"/>
      <point x="379" y="190" type="line" smooth="yes"/>
      <point x="379" y="89"/>
      <point x="295" y="-10"/>
      <point x="208" y="-10" type="qcurve" smooth="yes"/>
      <point x="122" y="-10"/>
    </contour>
    <contour>
      <point x="254" y="142"/>
      <point x="254" y="191" type="qcurve" smooth="yes"/>
      <point x="254" y="348" type="line" smooth="yes"/>
      <point x="254" y="396"/>
      <point x="233" y="435"/>
      <point x="208" y="435" type="qcurve" smooth="yes"/>
      <point x="182" y="435"/>
      <point x="164" y="397"/>
      <point x="164" y="348" type="qcurve" smooth="yes"/>
      <point x="164" y="191" type="line" smooth="yes"/>
      <point x="164" y="142"/>
      <point x="183" y="103"/>
      <point x="208" y="103" type="qcurve" smooth="yes"/>
      <point x="233" y="103"/>
    </contour>
  </outline>
</glyph>
<glyph name="one.tosf" format="2">
  <advance width="418"/>
  <unicode hex="0031"/>
  <outline>
    <contour>
      <point x="227" y="402" type="line"/>
      <point x="74" y="334" type="line"/>
      <point x="74" y="480" type="line"/>
      <point x="227" y="549" type="line"/>
      <point x="355" y="549" type="line"/>
      <point x="355" y="0" type="line"/>
      <point x="227" y="0" type="line"/>
    </contour>
  </outline>
</glyph>
<glyph name="two" format="2">
  <advance width="406"/>
  <unicode hex="0032"/>
  <outline>
    <contour>
      <point x="35" y="110" type="line"/>
      <point x="214" y="399" type="line" smooth="yes"/>
      <point x="226" y="420"/>
      <point x="235" y="437"/>
      <point x="240" y="452" type="curve" smooth="yes"/>
      <point x="245" y="467"/>
      <point x="248" y="485"/>
      <point x="248" y="508" type="curve" smooth="yes"/>
      <point x="248" y="548" type="line" smooth="yes"/>
      <point x="248" y="585"/>
      <point x="233" y="604"/>
      <point x="204" y="604" type="curve" smooth="yes"/>
      <point x="175" y="604"/>
      <point x="161" y="584"/>
      <point x="161" y="543" type="curve" smooth="yes"/>
      <point x="161" y="496" type="line"/>
      <point x="39" y="496" type="line"/>
      <point x="39" y="558" type="line" smooth="yes"/>
      <point x="39" y="607"/>
      <point x="54" y="645"/>
      <point x="85" y="674" type="curve" smooth="yes"/>
      <point x="116" y="703"/>
      <point x="156" y="717"/>
      <point x="207" y="717" type="curve" smooth="yes"/>
      <point x="258" y="717"/>
      <point x="298" y="702"/>
      <point x="328" y="673" type="curve" smooth="yes"/>
      <point x="357" y="644"/>
      <point x="372" y="604"/>
      <point x="372" y="554" type="curve" smooth="yes"/>
      <point x="372" y="504" type="line" smooth="yes"/>
      <point x="372" y="473"/>
      <point x="368" y="447"/>
      <point x="360" y="424" type="curve" smooth="yes"/>
      <point x="351" y="401"/>
      <point x="338" y="375"/>
      <point x="321" y="346" type="curve" smooth="yes"/>
      <point x="175" y="114" type="line"/>
      <point x="372" y="114" type="line"/>
      <point x="372" y="0" type="line"/>
      <point x="35" y="0" type="line"/>
    </contour>
  </outline>
</glyph>
<glyph name="three.tosf" format="2">
  <advance width="418"/>
  <unicode hex="0033"/>
  <outline>
    <contour>
      <point x="42" y="-75"/>
      <point x="42" y="-1" type="qcurve" smooth="yes"/>
      <point x="42" y="45" type="line"/>
      <point x="164" y="45" type="line"/>
      <point x="164" y="5" type="line" smooth="yes"/>
      <point x="164" y="-49"/>
      <point x="208" y="-50" type="qcurve" smooth="yes"/>
      <point x="234" y="-50"/>
      <point x="252" y="-19"/>
      <point x="252" y="12" type="qcurve" smooth="yes"/>
      <point x="252" y="79" type="line" smooth="yes"/>
      <point x="252" y="117"/>
      <point x="231" y="147"/>
      <point x="201" y="147" type="qcurve" smooth="yes"/>
      <point x="174" y="147" type="line"/>
      <point x="174" y="260" type="line"/>
      <point x="203" y="260" type="line" smooth="yes"/>
      <point x="233" y="260"/>
      <point x="252" y="290"/>
      <point x="252" y="322" type="qcurve" smooth="yes"/>
      <point x="252" y="377" type="line" smooth="yes"/>
      <point x="252" y="408"/>
      <point x="232" y="438"/>
      <point x="208" y="438" type="qcurve" smooth="yes"/>
      <point x="164" y="438"/>
      <point x="164" y="384" type="qcurve" smooth="yes"/>
      <point x="164" y="345" type="line"/>
      <point x="42" y="345" type="line"/>
      <point x="42" y="390" type="line" smooth="yes"/>
      <point x="42" y="464"/>
      <point x="131" y="549"/>
      <point x="210" y="549" type="qcurve" smooth="yes"/>
      <point x="290" y="549"/>
      <point x="378" y="463"/>
      <point x="378" y="384" type="qcurve" smooth="yes"/>
      <point x="378" y="340" type="line" smooth="yes"/>
      <point x="378" y="289"/>
      <point x="347" y="227"/>
      <point x="307" y="209" type="qcurve"/>
      <point x="350" y="191"/>
      <point x="378" y="129"/>
      <point x="378" y="72" type="qcurve" smooth="yes"/>
      <point x="378" y="6" type="line" smooth="yes"/>
      <point x="378" y="-72"/>
      <point x="289" y="-160"/>
      <point x="209" y="-160" type="qcurve" smooth="yes"/>
      <point x="128" y="-160"/>
    </contour>
  </outline>
</glyph>
<glyph name="four.tosf" format="2">
  <advance width="418"/>
  <unicode hex="0034"/>
  <outline>
    <contour>
      <point x="414" y="-44" type="line"/>
      <point x="370" y="-44" type="line"/>
      <point x="370" y="-162" type="line"/>
      <point x="244" y="-162" type="line"/>
      <point x="244" y="-44" type="line"/>
      <point x="32" y="-44" type="line"/>
      <point x="32" y="69" type="line"/>
      <point x="172" y="545" type="line"/>
      <point x="298" y="545" type="line"/>
      <point x="158" y="69" type="line"/>
      <point x="244" y="69" type="line"/>
      <point x="244" y="225" type="line"/>
      <point x="370" y="225" type="line"/>
      <point x="370" y="69" type="line"/>
      <point x="414" y="69" type="line"/>
    </contour>
  </outline>
</glyph>
<glyph name="eight" format="2">
  <advance width="419"/>
  <unicode hex="0038"/>
  <outline>
    <contour>
      <point x="39" y="168" type="curve" smooth="yes"/>
      <point x="39" y="241" type="line" smooth="yes"/>
      <point x="39" y="301"/>
      <point x="59" y="344"/>
      <point x="99" y="370" type="curve"/>
      <point x="79" y="381"/>
      <point x="64" y="398"/>
      <point x="54" y="420" type="curve" smooth="yes"/>
      <point x="44" y="442"/>
      <point x="39" y="464"/>
      <point x="39" y="487" type="curve" smooth="yes"/>
      <point x="39" y="554" type="line" smooth="yes"/>
      <point x="39" y="604"/>
      <point x="55" y="644"/>
      <point x="86" y="673" type="curve" smooth="yes"/>
      <point x="117" y="702"/>
      <point x="158" y="717"/>
      <point x="210" y="717" type="curve" smooth="yes"/>
      <point x="263" y="717"/>
      <point x="304" y="702"/>
      <point x="335" y="673" type="curve" smooth="yes"/>
      <point x="366" y="644"/>
      <point x="381" y="604"/>
      <point x="381" y="554" type="curve" smooth="yes"/>
      <point x="381" y="487" type="line" smooth="yes"/>
      <point x="381" y="464"/>
      <point x="376" y="441"/>
      <point x="365" y="420" type="curve" smooth="yes"/>
      <point x="354" y="398"/>
      <point x="340" y="381"/>
      <point x="321" y="370" type="curve"/>
      <point x="361" y="345"/>
      <point x="381" y="302"/>
      <point x="381" y="241" type="curve" smooth="yes"/>
      <point x="381" y="168" type="line" smooth="yes"/>
      <point x="381" y="110"/>
      <point x="366" y="66"/>
      <point x="337" y="36" type="curve" smooth="yes"/>
      <point x="307" y="5"/>
      <point x="265" y="-10"/>
      <point x="210" y="-10" type="curve" smooth="yes"/>
      <point x="155" y="-10"/>
      <point x="112" y="5"/>
      <point x="83" y="36" type="curve" smooth="yes"/>
      <point x="54" y="66"/>
      <point x="39" y="110"/>
    </contour>
    <contour>
      <point x="254" y="167" type="curve" smooth="yes"/>
      <point x="254" y="250" type="line" smooth="yes"/>
      <point x="254" y="290"/>
      <point x="239" y="310"/>
      <point x="210" y="310" type="curve" smooth="yes"/>
      <point x="193" y="310"/>
      <point x="182" y="305"/>
      <point x="176" y="295" type="curve" smooth="yes"/>
      <point x="169" y="284"/>
      <point x="166" y="269"/>
      <point x="166" y="250" type="curve" smooth="yes"/>
      <point x="166" y="167" type="line" smooth="yes"/>
      <point x="166" y="145"/>
      <point x="169" y="129"/>
      <point x="175" y="118" type="curve" smooth="yes"/>
      <point x="181" y="107"/>
      <point x="193" y="101"/>
      <point x="210" y="101" type="curve" smooth="yes"/>
      <point x="228" y="101"/>
      <point x="240" y="107"/>
      <point x="246" y="118" type="curve" smooth="yes"/>
      <point x="251" y="129"/>
      <point x="254" y="145"/>
    </contour>
    <contour>
      <point x="254" y="481" type="curve" smooth="yes"/>
      <point x="254" y="553" type="line" smooth="yes"/>
      <point x="254" y="570"/>
      <point x="250" y="583"/>
      <point x="243" y="592" type="curve" smooth="yes"/>
      <point x="235" y="601"/>
      <point x="224" y="605"/>
      <point x="210" y="605" type="curve" smooth="yes"/>
      <point x="195" y="605"/>
      <point x="184" y="601"/>
      <point x="177" y="592" type="curve" smooth="yes"/>
      <point x="170" y="583"/>
      <point x="166" y="570"/>
      <point x="166" y="553" type="curve" smooth="yes"/>
      <point x="166" y="481" type="line" smooth="yes"/>
      <point x="166" y="461"/>
      <point x="169" y="446"/>
      <point x="176" y="436" type="curve" smooth="yes"/>
      <point x="182" y="425"/>
      <point x="193" y="420"/>
      <point x="210" y="420" type="curve" smooth="yes"/>
      <point x="227" y="420"/>
      <point x="239" y="425"/>
      <point x="245" y="436" type="curve" smooth="yes"/>
      <point x="251" y="447"/>
      <point x="254" y="462"/>
    </contour>
  </outline>
</glyph>
<glyph name="nine" format="2">
  <advance width="409"/>
  <unicode hex="0039"/>
  <outline>
    <contour>
      <point x="205" y="275" type="line"/>
      <point x="196" y="270"/>
      <point x="183" y="268"/>
      <point x="166" y="268" type="curve" smooth="yes"/>
      <point x="125" y="268"/>
      <point x="93" y="282"/>
      <point x="70" y="310" type="curve" smooth="yes"/>
      <point x="47" y="337"/>
      <point x="35" y="375"/>
      <point x="35" y="424" type="curve" smooth="yes"/>
      <point x="35" y="548" type="line" smooth="yes"/>
      <point x="35" y="601"/>
      <point x="50" y="643"/>
      <point x="80" y="673" type="curve" smooth="yes"/>
      <point x="109" y="702"/>
      <point x="151" y="717"/>
      <point x="206" y="717" type="curve" smooth="yes"/>
      <point x="261" y="717"/>
      <point x="303" y="702"/>
      <point x="332" y="673" type="curve" smooth="yes"/>
      <point x="361" y="643"/>
      <point x="375" y="600"/>
      <point x="375" y="544" type="curve" smooth="yes"/>
      <point x="375" y="438" type="line" smooth="yes"/>
      <point x="375" y="406"/>
      <point x="372" y="379"/>
      <point x="367" y="357" type="curve" smooth="yes"/>
      <point x="362" y="335"/>
      <point x="353" y="310"/>
      <point x="341" y="282" type="curve" smooth="yes"/>
      <point x="215" y="0" type="line"/>
      <point x="85" y="0" type="line"/>
    </contour>
    <contour>
      <point x="249" y="428" type="curve" smooth="yes"/>
      <point x="249" y="549" type="line" smooth="yes"/>
      <point x="249" y="585"/>
      <point x="235" y="603"/>
      <point x="206" y="603" type="curve" smooth="yes"/>
      <point x="176" y="603"/>
      <point x="161" y="585"/>
      <point x="161" y="548" type="curve" smooth="yes"/>
      <point x="161" y="433" type="line" smooth="yes"/>
      <point x="161" y="397"/>
      <point x="176" y="379"/>
      <point x="206" y="379" type="curve" smooth="yes"/>
      <point x="219" y="379"/>
      <point x="230" y="383"/>
      <point x="238" y="392" type="curve" smooth="yes"/>
      <point x="245" y="400"/>
      <point x="249" y="412"/>
    </contour>
  </outline>
</glyph>
<glyph name="question" format="2">
  <advance width="385"/>
  <unicode hex="003F"/>
  <outline>
    <contour>
      <point x="132" y="247" type="line" smooth="yes"/>
      <point x="132" y="277"/>
      <point x="134" y="301"/>
      <point x="139" y="319" type="curve" smooth="yes"/>
      <point x="143" y="336"/>
      <point x="154" y="360"/>
      <point x="173" y="389" type="curve" smooth="yes"/>
      <point x="209" y="446" type="line" smooth="yes"/>
      <point x="220" y="463"/>
      <point x="227" y="479"/>
      <point x="231" y="492" type="curve" smooth="yes"/>
      <point x="235" y="505"/>
      <point x="237" y="523"/>
      <point x="237" y="544" type="curve" smooth="yes"/>
      <point x="237" y="572"/>
      <point x="230" y="590"/>
      <point x="217" y="600" type="curve" smooth="yes"/>
      <point x="210" y="606"/>
      <point x="200" y="608"/>
      <point x="188" y="608" type="curve" smooth="yes"/>
      <point x="167" y="608"/>
      <point x="153" y="601"/>
      <point x="148" y="586" type="curve" smooth="yes"/>
      <point x="142" y="571"/>
      <point x="139" y="545"/>
      <point x="139" y="509" type="curve"/>
      <point x="20" y="509" type="line"/>
      <point x="20" y="578"/>
      <point x="34" y="630"/>
      <point x="61" y="665" type="curve" smooth="yes"/>
      <point x="88" y="699"/>
      <point x="130" y="716"/>
      <point x="189" y="716" type="curve" smooth="yes"/>
      <point x="241" y="716"/>
      <point x="282" y="701"/>
      <point x="313" y="672" type="curve" smooth="yes"/>
      <point x="343" y="642"/>
      <point x="358" y="600"/>
      <point x="358" y="547" type="curve" smooth="yes"/>
      <point x="358" y="520"/>
      <point x="355" y="497"/>
      <point x="349" y="476" type="curve" smooth="yes"/>
      <point x="343" y="455"/>
      <point x="331" y="431"/>
      <point x="312" y="404" type="curve" smooth="yes"/>
      <point x="272" y="346" type="line" smooth="yes"/>
      <point x="260" y="329"/>
      <point x="253" y="314"/>
      <point x="250" y="301" type="curve" smooth="yes"/>
      <point x="247" y="288"/>
      <point x="245" y="271"/>
      <point x="245" y="248" type="curve" smooth="yes"/>
      <point x="245" y="203" type="line"/>
      <point x="132" y="203" type="line"/>
    </contour>
    <contour>
      <point x="132" y="130" type="line"/>
      <point x="245" y="130" type="line"/>
      <point x="245" y="0" type="line"/>
      <point x="132" y="0" type="line"/>
    </contour>
  </outline>
</glyph>
<glyph name="Q" format="2">
  <advance width="479"/>
  <unicode hex="0051"/>
  <outline>
    <contour>
      <point x="348" y="18" type="curve"/>
      <point x="394" y="-110" type="line"/>
      <point x="288" y="-148" type="line"/>
      <point x="238" y="-8" type="line"/>
      <point x="177" y="-8"/>
      <point x="128" y="9"/>
      <point x="93" y="44" type="curve" smooth="yes"/>
      <point x="57" y="78"/>
      <point x="39" y="128"/>
      <point x="39" y="195" type="curve" smooth="yes"/>
      <point x="39" y="513" type="line" smooth="yes"/>
      <point x="39" y="580"/>
      <point x="58" y="630"/>
      <point x="96" y="665" type="curve" smooth="yes"/>
      <point x="133" y="700"/>
      <point x="183" y="717"/>
      <point x="244" y="717" type="curve" smooth="yes"/>
      <point x="303" y="717"/>
      <point x="351" y="700"/>
      <point x="387" y="665" type="curve" smooth="yes"/>
      <point x="422" y="630"/>
      <point x="440" y="580"/>
      <point x="440" y="513" type="curve" smooth="yes"/>
      <point x="440" y="195" type="line" smooth="yes"/>
      <point x="440" y="152"/>
      <point x="432" y="116"/>
      <point x="416" y="87" type="curve" smooth="yes"/>
      <point x="399" y="57"/>
      <point x="377" y="34"/>
    </contour>
    <contour>
      <point x="241" y="105" type="curve" smooth="yes"/>
      <point x="265" y="105"/>
      <point x="283" y="114"/>
      <point x="296" y="133" type="curve" smooth="yes"/>
      <point x="308" y="151"/>
      <point x="314" y="176"/>
      <point x="314" y="209" type="curve" smooth="yes"/>
      <point x="314" y="493" type="line" smooth="yes"/>
      <point x="314" y="529"/>
      <point x="308" y="556"/>
      <point x="296" y="575" type="curve" smooth="yes"/>
      <point x="284" y="594"/>
      <point x="266" y="603"/>
      <point x="241" y="603" type="curve" smooth="yes"/>
      <point x="214" y="603"/>
      <point x="195" y="594"/>
      <point x="183" y="576" type="curve" smooth="yes"/>
      <point x="171" y="557"/>
      <point x="165" y="530"/>
      <point x="165" y="493" type="curve" smooth="yes"/>
      <point x="165" y="209" type="line" smooth="yes"/>
      <point x="165" y="140"/>
      <point x="190" y="105"/>
    </contour>
  </outline>
</glyph>
<glyph name="R" format="2">
  <advance width="471"/>
  <unicode hex="0052"/>
  <outline>
    <contour>
      <point x="229" y="284" type="line"/>
      <point x="169" y="284" type="line"/>
      <point x="169" y="0" type="line"/>
      <point x="43" y="0" type="line"/>
      <point x="43" y="707" type="line"/>
      <point x="236" y="707" type="line" smooth="yes"/>
      <point x="305" y="707"/>
      <point x="355" y="690"/>
      <point x="384" y="657" type="curve" smooth="yes"/>
      <point x="413" y="623"/>
      <point x="427" y="569"/>
      <point x="427" y="496" type="curve" smooth="yes"/>
      <point x="427" y="449"/>
      <point x="421" y="409"/>
      <point x="408" y="378" type="curve" smooth="yes"/>
      <point x="395" y="347"/>
      <point x="373" y="323"/>
      <point x="344" y="307" type="curve"/>
      <point x="450" y="0" type="line"/>
      <point x="318" y="0" type="line"/>
    </contour>
    <contour>
      <point x="169" y="396" type="line"/>
      <point x="234" y="396" type="line" smooth="yes"/>
      <point x="259" y="396"/>
      <point x="277" y="404"/>
      <point x="287" y="421" type="curve" smooth="yes"/>
      <point x="296" y="438"/>
      <point x="301" y="463"/>
      <point x="301" y="496" type="curve" smooth="yes"/>
      <point x="301" y="529"/>
      <point x="296" y="553"/>
      <point x="287" y="570" type="curve" smooth="yes"/>
      <point x="278" y="586"/>
      <point x="260" y="594"/>
      <point x="234" y="594" type="curve" smooth="yes"/>
      <point x="169" y="594" type="line"/>
    </contour>
  </outline>
</glyph>
<glyph name="S" format="2">
  <advance width="436"/>
  <unicode hex="0053"/>
  <outline>
    <contour>
      <point x="138" y="202" type="line"/>
      <point x="139" y="167"/>
      <point x="146" y="142"/>
      <point x="159" y="125" type="curve" smooth="yes"/>
      <point x="172" y="108"/>
      <point x="190" y="100"/>
      <point x="215" y="100" type="curve" smooth="yes"/>
      <point x="240" y="100"/>
      <point x="258" y="108"/>
      <point x="269" y="123" type="curve" smooth="yes"/>
      <point x="280" y="138"/>
      <point x="286" y="162"/>
      <point x="286" y="195" type="curve" smooth="yes"/>
      <point x="286" y="222"/>
      <point x="280" y="244"/>
      <point x="267" y="260" type="curve" smooth="yes"/>
      <point x="254" y="276"/>
      <point x="233" y="291"/>
      <point x="203" y="304" type="curve" smooth="yes"/>
      <point x="155" y="326" type="line" smooth="yes"/>
      <point x="109" y="347"/>
      <point x="76" y="372"/>
      <point x="56" y="402" type="curve" smooth="yes"/>
      <point x="36" y="431"/>
      <point x="26" y="471"/>
      <point x="26" y="522" type="curve" smooth="yes"/>
      <point x="26" y="581"/>
      <point x="43" y="629"/>
      <point x="78" y="665" type="curve" smooth="yes"/>
      <point x="112" y="700"/>
      <point x="158" y="718"/>
      <point x="217" y="718" type="curve" smooth="yes"/>
      <point x="275" y="718"/>
      <point x="320" y="700"/>
      <point x="352" y="665" type="curve" smooth="yes"/>
      <point x="383" y="630"/>
      <point x="400" y="579"/>
      <point x="402" y="513" type="curve"/>
      <point x="287" y="513" type="line"/>
      <point x="286" y="545"/>
      <point x="281" y="569"/>
      <point x="270" y="585" type="curve" smooth="yes"/>
      <point x="259" y="601"/>
      <point x="242" y="609"/>
      <point x="217" y="609" type="curve" smooth="yes"/>
      <point x="171" y="609"/>
      <point x="148" y="582"/>
      <point x="148" y="528" type="curve" smooth="yes"/>
      <point x="148" y="503"/>
      <point x="154" y="484"/>
      <point x="165" y="469" type="curve" smooth="yes"/>
      <point x="176" y="454"/>
      <point x="195" y="441"/>
      <point x="222" y="430" type="curve" smooth="yes"/>
      <point x="268" y="410" type="line" smooth="yes"/>
      <point x="317" y="388"/>
      <point x="353" y="361"/>
      <point x="376" y="328" type="curve" smooth="yes"/>
      <point x="398" y="295"/>
      <point x="409" y="252"/>
      <point x="409" y="197" type="curve" smooth="yes"/>
      <point x="409" y="132"/>
      <point x="392" y="81"/>
      <point x="358" y="46" type="curve" smooth="yes"/>
      <point x="323" y="10"/>
      <point x="275" y="-8"/>
      <point x="212" y="-8" type="curve" smooth="yes"/>
      <point x="150" y="-8"/>
      <point x="103" y="10"/>
      <point x="70" y="46" type="curve" smooth="yes"/>
      <point x="37" y="82"/>
      <point x="20" y="134"/>
      <point x="19" y="202" type="curve"/>
    </contour>
  </outline>
</glyph>
<glyph name="T" format="2">
  <advance width="378"/>
  <unicode hex="0054"/>
  <outline>
    <contour>
      <point x="374" y="593" type="line"/>
      <point x="252" y="593" type="line"/>
      <point x="252" y="0" type="line"/>
      <point x="127" y="0" type="line"/>
      <point x="127" y="593" type="line"/>
      <point x="4" y="593" type="line"/>
      <point x="4" y="707" type="line"/>
      <point x="374" y="707" type="line"/>
    </contour>
  </outline>
</glyph>
<glyph name="U" format="2">
  <advance width="471"/>
  <unicode hex="0055"/>
  <outline>
    <contour>
      <point x="43" y="185" type="line" smooth="yes"/>
      <point x="43" y="147"/>
      <point x="51" y="113"/>
      <point x="68" y="84" type="curve" smooth="yes"/>
      <point x="85" y="55"/>
      <point x="108" y="32"/>
      <point x="137" y="16" type="curve" smooth="yes"/>
      <point x="166" y="0"/>
      <point x="199" y="-8"/>
      <point x="236" y="-8" type="curve" smooth="yes"/>
      <point x="273" y="-8"/>
      <point x="306" y="0"/>
      <point x="335" y="16" type="curve" smooth="yes"/>
      <point x="364" y="32"/>
      <point x="387" y="55"/>
      <point x="404" y="84" type="curve" smooth="yes"/>
      <point x="420" y="113"/>
      <point x="428" y="147"/>
      <point x="428" y="185" type="curve" smooth="yes"/>
      <point x="428" y="707" type="line"/>
      <point x="302" y="707" type="line"/>
      <point x="302" y="188" type="line" smooth="yes"/>
      <point x="302" y="155"/>
      <point x="295" y="131"/>
      <point x="278" y="118" type="curve"/>
      <point x="268" y="109"/>
      <point x="254" y="105"/>
      <point x="236" y="105" type="curve" smooth="yes"/>
      <point x="213" y="105"/>
      <point x="197" y="112"/>
      <point x="186" y="125" type="curve" smooth="yes"/>
      <point x="175" y="138"/>
      <point x="169" y="159"/>
      <point x="169" y="188" type="curve" smooth="yes"/>
      <point x="169" y="707" type="line"/>
      <point x="43" y="707" type="line"/>
    </contour>
  </outline>
</glyph>
<glyph name="X" format="2">
  <advance width="424"/>
  <unicode hex="0058"/>
  <outline>
    <contour>
      <point x="151" y="367" type="line"/>
      <point x="16" y="707" type="line"/>
      <point x="140" y="707" type="line"/>
      <point x="213" y="485" type="line"/>
      <point x="285" y="707" type="line"/>
      <point x="409" y="707" type="line"/>
      <point x="274" y="367" type="line"/>
      <point x="419" y="0" type="line"/>
      <point x="295" y="0" type="line"/>
      <point x="213" y="247" type="line"/>
      <point x="130" y="0" type="line"/>
      <point x="6" y="0" type="line"/>
    </contour>
  </outline>
</glyph>
<glyph name="b" format="2">
  <advance width="419"/>
  <unicode hex="0062"/>
  <outline>
    <contour>
      <point x="157" y="38" type="curve"/>
      <point x="157" y="0" type="line"/>
      <point x="42" y="0" type="line"/>
      <point x="42" y="707" type="line"/>
      <point x="161" y="707" type="line"/>
      <point x="161" y="498" type="line"/>
      <point x="170" y="515"/>
      <point x="183" y="527"/>
      <point x="198" y="536" type="curve" smooth="yes"/>
      <point x="213" y="545"/>
      <point x="231" y="549"/>
      <point x="252" y="549" type="curve" smooth="yes"/>
      <point x="291" y="549"/>
      <point x="323" y="535"/>
      <point x="346" y="507" type="curve" smooth="yes"/>
      <point x="369" y="479"/>
      <point x="381" y="435"/>
      <point x="381" y="374" type="curve" smooth="yes"/>
      <point x="381" y="167" type="line" smooth="yes"/>
      <point x="381" y="106"/>
      <point x="369" y="62"/>
      <point x="345" y="34" type="curve" smooth="yes"/>
      <point x="320" y="6"/>
      <point x="289" y="-8"/>
      <point x="250" y="-8" type="curve" smooth="yes"/>
      <point x="231" y="-8"/>
      <point x="214" y="-4"/>
      <point x="199" y="3" type="curve" smooth="yes"/>
      <point x="184" y="10"/>
      <point x="170" y="22"/>
    </contour>
    <contour>
      <point x="262" y="186" type="curve" smooth="yes"/>
      <point x="262" y="354" type="line" smooth="yes"/>
      <point x="262" y="385"/>
      <point x="258" y="407"/>
      <point x="250" y="421" type="curve" smooth="yes"/>
      <point x="241" y="435"/>
      <point x="228" y="442"/>
      <point x="211" y="442" type="curve" smooth="yes"/>
      <point x="194" y="442"/>
      <point x="181" y="435"/>
      <point x="172" y="421" type="curve" smooth="yes"/>
      <point x="163" y="407"/>
      <point x="159" y="385"/>
      <point x="159" y="354" type="curve" smooth="yes"/>
      <point x="159" y="186" type="line" smooth="yes"/>
      <point x="159" y="127"/>
      <point x="176" y="98"/>
      <point x="211" y="98" type="curve" smooth="yes"/>
      <point x="228" y="98"/>
      <point x="241" y="105"/>
      <point x="250" y="119" type="curve" smooth="yes"/>
      <point x="258" y="132"/>
      <point x="262" y="155"/>
    </contour>
  </outline>
</glyph>
<glyph name="c" format="2">
  <advance width="416"/>
  <unicode hex="0063"/>
  <outline>
    <contour>
      <point x="39" y="84"/>
      <point x="39" y="187" type="qcurve" smooth="yes"/>
      <point x="39" y="353" type="line" smooth="yes"/>
      <point x="39" y="456"/>
      <point x="127" y="549"/>
      <point x="211" y="549" type="qcurve" smooth="yes"/>
      <point x="292" y="549"/>
      <point x="378" y="461"/>
      <point x="378" y="373" type="qcurve" smooth="yes"/>
      <point x="378" y="352" type="line"/>
      <point x="263" y="352" type="line"/>
      <point x="263" y="371" type="line" smooth="yes"/>
      <point x="263" y="407"/>
      <point x="236" y="442"/>
      <point x="211" y="442" type="qcurve" smooth="yes"/>
      <point x="184" y="442"/>
      <point x="158" y="400"/>
      <point x="158" y="354" type="qcurve" smooth="yes"/>
      <point x="158" y="186" type="line" smooth="yes"/>
      <point x="158" y="140"/>
      <point x="184" y="98"/>
      <point x="210" y="98" type="qcurve" smooth="yes"/>
      <point x="236" y="98"/>
      <point x="263" y="134"/>
      <point x="263" y="171" type="qcurve" smooth="yes"/>
      <point x="263" y="188" type="line"/>
      <point x="378" y="188" type="line"/>
      <point x="378" y="171" type="line" smooth="yes"/>
      <point x="378" y="81"/>
      <point x="292" y="-8"/>
      <point x="211" y="-8" type="qcurve" smooth="yes"/>
      <point x="127" y="-8"/>
    </contour>
  </outline>
</glyph>
<glyph name="d" format="2">
  <advance width="419"/>
  <unicode hex="0064"/>
  <outline>
    <contour>
      <point x="39" y="167" type="curve" smooth="yes"/>
      <point x="39" y="374" type="line" smooth="yes"/>
      <point x="39" y="435"/>
      <point x="51" y="479"/>
      <point x="75" y="507" type="curve" smooth="yes"/>
      <point x="98" y="535"/>
      <point x="130" y="549"/>
      <point x="169" y="549" type="curve" smooth="yes"/>
      <point x="189" y="549"/>
      <point x="207" y="545"/>
      <point x="223" y="536" type="curve" smooth="yes"/>
      <point x="238" y="527"/>
      <point x="251" y="514"/>
      <point x="260" y="498" type="curve"/>
      <point x="260" y="707" type="line"/>
      <point x="378" y="707" type="line"/>
      <point x="378" y="0" type="line"/>
      <point x="264" y="0" type="line"/>
      <point x="264" y="38" type="line"/>
      <point x="238" y="7"/>
      <point x="207" y="-8"/>
      <point x="171" y="-8" type="curve" smooth="yes"/>
      <point x="132" y="-8"/>
      <point x="100" y="6"/>
      <point x="76" y="34" type="curve" smooth="yes"/>
      <point x="51" y="62"/>
      <point x="39" y="106"/>
    </contour>
    <contour>
      <point x="262" y="186" type="curve" smooth="yes"/>
      <point x="262" y="354" type="line" smooth="yes"/>
      <point x="262" y="385"/>
      <point x="258" y="407"/>
      <point x="249" y="421" type="curve" smooth="yes"/>
      <point x="240" y="435"/>
      <point x="227" y="442"/>
      <point x="209" y="442" type="curve" smooth="yes"/>
      <point x="192" y="442"/>
      <point x="179" y="435"/>
      <point x="171" y="421" type="curve" smooth="yes"/>
      <point x="162" y="407"/>
      <point x="158" y="385"/>
      <point x="158" y="354" type="curve" smooth="yes"/>
      <point x="158" y="186" type="line" smooth="yes"/>
      <point x="158" y="155"/>
      <point x="162" y="132"/>
      <point x="171" y="119" type="curve" smooth="yes"/>
      <point x="179" y="105"/>
      <point x="192" y="98"/>
      <point x="210" y="98" type="curve" smooth="yes"/>
      <point x="245" y="98"/>
      <point x="262" y="127"/>
    </contour>
  </outline>
</glyph>
<glyph name="e" format="2">
  <advance width="420"/>
  <unicode hex="0065"/>
  <outline>
    <contour>
      <point x="158" y="228" type="line"/>
      <point x="158" y="179" type="line" smooth="yes"/>
      <point x="158" y="124"/>
      <point x="176" y="96"/>
      <point x="211" y="96" type="curve" smooth="yes"/>
      <point x="246" y="96"/>
      <point x="263" y="119"/>
      <point x="263" y="165" type="curve" smooth="yes"/>
      <point x="263" y="170" type="line"/>
      <point x="378" y="170" type="line"/>
      <point x="378" y="164" type="line" smooth="yes"/>
      <point x="378" y="107"/>
      <point x="364" y="65"/>
      <point x="335" y="36" type="curve" smooth="yes"/>
      <point x="306" y="7"/>
      <point x="265" y="-8"/>
      <point x="211" y="-8" type="curve" smooth="yes"/>
      <point x="156" y="-8"/>
      <point x="114" y="8"/>
      <point x="84" y="41" type="curve" smooth="yes"/>
      <point x="54" y="74"/>
      <point x="39" y="128"/>
      <point x="39" y="204" type="curve" smooth="yes"/>
      <point x="39" y="336" type="line" smooth="yes"/>
      <point x="39" y="410"/>
      <point x="53" y="464"/>
      <point x="82" y="498" type="curve" smooth="yes"/>
      <point x="110" y="532"/>
      <point x="152" y="549"/>
      <point x="208" y="549" type="curve" smooth="yes"/>
      <point x="263" y="549"/>
      <point x="306" y="532"/>
      <point x="337" y="497" type="curve" smooth="yes"/>
      <point x="367" y="462"/>
      <point x="382" y="408"/>
      <point x="382" y="336" type="curve" smooth="yes"/>
      <point x="382" y="228" type="line"/>
    </contour>
    <contour>
      <point x="158" y="354" type="curve" smooth="yes"/>
      <point x="158" y="314" type="line"/>
      <point x="263" y="314" type="line"/>
      <point x="263" y="354" type="line" smooth="yes"/>
      <point x="263" y="385"/>
      <point x="259" y="407"/>
      <point x="250" y="421" type="curve" smooth="yes"/>
      <point x="241" y="435"/>
      <point x="228" y="442"/>
      <point x="210" y="442" type="curve" smooth="yes"/>
      <point x="193" y="442"/>
      <point x="180" y="435"/>
      <point x="171" y="421" type="curve" smooth="yes"/>
      <point x="162" y="407"/>
      <point x="158" y="385"/>
    </contour>
  </outline>
</glyph>
<glyph name="f" format="2">
  <advance width="293"/>
  <unicode hex="0066"/>
  <outline>
    <contour>
      <point x="200" y="563" type="curve" smooth="yes"/>
      <point x="200" y="541" type="line"/>
      <point x="272" y="541" type="line"/>
      <point x="272" y="458" type="line"/>
      <point x="200" y="458" type="line"/>
      <point x="200" y="0" type="line"/>
      <point x="82" y="0" type="line"/>
      <point x="82" y="458" type="line"/>
      <point x="28" y="458" type="line"/>
      <point x="28" y="541" type="line"/>
      <point x="82" y="541" type="line"/>
      <point x="82" y="571" type="line" smooth="yes"/>
      <point x="82" y="661"/>
      <point x="128" y="706"/>
      <point x="221" y="707" type="curve" smooth="yes"/>
      <point x="272" y="707" type="line"/>
      <point x="272" y="623" type="line"/>
      <point x="257" y="623" type="line" smooth="yes"/>
      <point x="236" y="623"/>
      <point x="221" y="619"/>
      <point x="213" y="610" type="curve" smooth="yes"/>
      <point x="204" y="601"/>
      <point x="200" y="585"/>
    </contour>
  </outline>
</glyph>
<glyph name="h" format="2">
  <advance width="419"/>
  <unicode hex="0068"/>
  <outline>
    <contour>
      <point x="42" y="707" type="line"/>
      <point x="161" y="707" type="line"/>
      <point x="161" y="506" type="line"/>
      <point x="186" y="535"/>
      <point x="215" y="549"/>
      <point x="246" y="549" type="curve" smooth="yes"/>
      <point x="292" y="549"/>
      <point x="326" y="535"/>
      <point x="347" y="507" type="curve" smooth="yes"/>
      <point x="368" y="479"/>
      <point x="378" y="439"/>
      <point x="378" y="386" type="curve" smooth="yes"/>
      <point x="378" y="0" type="line"/>
      <point x="259" y="0" type="line"/>
      <point x="259" y="385" type="line" smooth="yes"/>
      <point x="259" y="404"/>
      <point x="254" y="418"/>
      <point x="245" y="428" type="curve" smooth="yes"/>
      <point x="236" y="437"/>
      <point x="224" y="442"/>
      <point x="210" y="442" type="curve" smooth="yes"/>
      <point x="195" y="442"/>
      <point x="183" y="437"/>
      <point x="174" y="428" type="curve" smooth="yes"/>
      <point x="165" y="418"/>
      <point x="161" y="404"/>
      <point x="161" y="385" type="curve" smooth="yes"/>
      <point x="161" y="0" type="line"/>
      <point x="42" y="0" type="line"/>
    </contour>
  </outline>
</glyph>
<glyph name="m" format="2">
  <advance width="636"/>
  <unicode hex="006D"/>
  <outline>
    <contour>
      <point x="42" y="541" type="line"/>
      <point x="156" y="541" type="line"/>
      <point x="156" y="501" type="line"/>
      <point x="181" y="533"/>
      <point x="211" y="549"/>
      <point x="247" y="549" type="curve" smooth="yes"/>
      <point x="269" y="549"/>
      <point x="289" y="544"/>
      <point x="308" y="534" type="curve" smooth="yes"/>
      <point x="326" y="524"/>
      <point x="341" y="510"/>
      <point x="352" y="493" type="curve"/>
      <point x="365" y="510"/>
      <point x="382" y="523"/>
      <point x="401" y="534" type="curve" smooth="yes"/>
      <point x="420" y="544"/>
      <point x="439" y="549"/>
      <point x="459" y="549" type="curve" smooth="yes"/>
      <point x="508" y="549"/>
      <point x="543" y="535"/>
      <point x="564" y="508" type="curve" smooth="yes"/>
      <point x="585" y="481"/>
      <point x="595" y="440"/>
      <point x="595" y="386" type="curve" smooth="yes"/>
      <point x="595" y="0" type="line"/>
      <point x="476" y="0" type="line"/>
      <point x="476" y="385" type="line" smooth="yes"/>
      <point x="476" y="404"/>
      <point x="472" y="418"/>
      <point x="463" y="428" type="curve" smooth="yes"/>
      <point x="454" y="437"/>
      <point x="442" y="442"/>
      <point x="427" y="442" type="curve" smooth="yes"/>
      <point x="412" y="442"/>
      <point x="401" y="437"/>
      <point x="392" y="428" type="curve" smooth="yes"/>
      <point x="383" y="418"/>
      <point x="378" y="404"/>
      <point x="378" y="385" type="curve" smooth="yes"/>
      <point x="378" y="0" type="line"/>
      <point x="259" y="0" type="line"/>
      <point x="259" y="385" type="line" smooth="yes"/>
      <point x="259" y="404"/>
      <point x="254" y="418"/>
      <point x="245" y="428" type="curve" smooth="yes"/>
      <point x="236" y="437"/>
      <point x="224" y="442"/>
      <point x="210" y="442" type="curve" smooth="yes"/>
      <point x="195" y="442"/>
      <point x="183" y="437"/>
      <point x="174" y="428" type="curve" smooth="yes"/>
      <point x="165" y="418"/>
      <point x="161" y="404"/>
      <point x="161" y="385" type="curve" smooth="yes"/>
      <point x="161" y="0" type="line"/>
      <point x="42" y="0" type="line"/>
    </contour>
  </outline>
</glyph>
<glyph name="n" format="2">
  <advance width="419"/>
  <unicode hex="006E"/>
  <outline>
    <contour>
      <point x="42" y="541" type="line"/>
      <point x="156" y="541" type="line"/>
      <point x="156" y="501" type="line"/>
      <point x="181" y="533"/>
      <point x="211" y="549"/>
      <point x="246" y="549" type="curve" smooth="yes"/>
      <point x="334" y="549"/>
      <point x="378" y="495"/>
      <point x="378" y="386" type="curve" smooth="yes"/>
      <point x="378" y="0" type="line"/>
      <point x="259" y="0" type="line"/>
      <point x="259" y="385" type="line" smooth="yes"/>
      <point x="259" y="404"/>
      <point x="254" y="418"/>
      <point x="245" y="428" type="curve" smooth="yes"/>
      <point x="236" y="437"/>
      <point x="224" y="442"/>
      <point x="210" y="442" type="curve" smooth="yes"/>
      <point x="195" y="442"/>
      <point x="183" y="437"/>
      <point x="174" y="428" type="curve" smooth="yes"/>
      <point x="165" y="418"/>
      <point x="161" y="404"/>
      <point x="161" y="385" type="curve" smooth="yes"/>
      <point x="161" y="0" type="line"/>
      <point x="42" y="0" type="line"/>
    </contour>
  </outline>
</glyph>
<glyph name="q" format="2">
  <advance width="419"/>
  <unicode hex="0071"/>
  <outline>
    <contour>
      <point x="260" y="33" type="line"/>
      <point x="225" y="-8"/>
      <point x="171" y="-8" type="qcurve" smooth="yes"/>
      <point x="112" y="-8"/>
      <point x="39" y="76"/>
      <point x="39" y="167" type="qcurve" smooth="yes"/>
      <point x="39" y="374" type="line" smooth="yes"/>
      <point x="39" y="465"/>
      <point x="110" y="549"/>
      <point x="169" y="549" type="qcurve" smooth="yes"/>
      <point x="227" y="549"/>
      <point x="264" y="498" type="qcurve"/>
      <point x="264" y="541" type="line"/>
      <point x="378" y="541" type="line"/>
      <point x="378" y="-162" type="line"/>
      <point x="260" y="-162" type="line"/>
    </contour>
    <contour>
      <point x="262" y="186" type="qcurve" smooth="yes"/>
      <point x="262" y="354" type="line" smooth="yes"/>
      <point x="262" y="400"/>
      <point x="236" y="442"/>
      <point x="209" y="442" type="qcurve" smooth="yes"/>
      <point x="183" y="442"/>
      <point x="158" y="400"/>
      <point x="158" y="354" type="qcurve" smooth="yes"/>
      <point x="158" y="186" type="line" smooth="yes"/>
      <point x="158" y="139"/>
      <point x="183" y="98"/>
      <point x="210" y="98" type="qcurve" smooth="yes"/>
      <point x="262" y="98"/>
    </contour>
  </outline>
</glyph>
<glyph name="u" format="2">
  <advance width="419"/>
  <unicode hex="0075"/>
  <outline>
    <contour>
      <point x="42" y="181" type="curve" smooth="yes"/>
      <point x="42" y="541" type="line"/>
      <point x="161" y="541" type="line"/>
      <point x="161" y="206" type="line" smooth="yes"/>
      <point x="161" y="178"/>
      <point x="162" y="157"/>
      <point x="164" y="144" type="curve" smooth="yes"/>
      <point x="165" y="130"/>
      <point x="169" y="119"/>
      <point x="176" y="111" type="curve" smooth="yes"/>
      <point x="183" y="102"/>
      <point x="194" y="98"/>
      <point x="210" y="98" type="curve" smooth="yes"/>
      <point x="226" y="98"/>
      <point x="237" y="102"/>
      <point x="244" y="109" type="curve" smooth="yes"/>
      <point x="251" y="116"/>
      <point x="255" y="127"/>
      <point x="257" y="141" type="curve" smooth="yes"/>
      <point x="258" y="154"/>
      <point x="259" y="176"/>
      <point x="259" y="206" type="curve" smooth="yes"/>
      <point x="259" y="541" type="line"/>
      <point x="378" y="541" type="line"/>
      <point x="378" y="181" type="line" smooth="yes"/>
      <point x="378" y="138"/>
      <point x="373" y="103"/>
      <point x="364" y="76" type="curve" smooth="yes"/>
      <point x="354" y="49"/>
      <point x="337" y="29"/>
      <point x="313" y="14" type="curve" smooth="yes"/>
      <point x="288" y="-1"/>
      <point x="254" y="-8"/>
      <point x="210" y="-8" type="curve" smooth="yes"/>
      <point x="145" y="-8"/>
      <point x="101" y="8"/>
      <point x="78" y="40" type="curve" smooth="yes"/>
      <point x="54" y="71"/>
      <point x="42" y="118"/>
    </contour>
  </outline>
</glyph>
<glyph name="section" format="2">
  <advance width="418"/>
  <unicode hex="00A7"/>
  <outline>
    <contour>
      <point x="56" y="4" type="curve"/>
      <point x="164" y="4" type="line"/>
      <point x="164" y="-26"/>
      <point x="167" y="-47"/>
      <point x="172" y="-59" type="curve" smooth="yes"/>
      <point x="177" y="-72"/>
      <point x="188" y="-78"/>
      <point x="207" y="-78" type="curve" smooth="yes"/>
      <point x="224" y="-78"/>
      <point x="236" y="-72"/>
      <point x="242" y="-61" type="curve" smooth="yes"/>
      <point x="248" y="-50"/>
      <point x="251" y="-35"/>
      <point x="251" y="-15" type="curve" smooth="yes"/>
      <point x="251" y="7"/>
      <point x="248" y="24"/>
      <point x="243" y="36" type="curve" smooth="yes"/>
      <point x="237" y="48"/>
      <point x="228" y="58"/>
      <point x="216" y="66" type="curve" smooth="yes"/>
      <point x="204" y="73"/>
      <point x="185" y="82"/>
      <point x="160" y="91" type="curve" smooth="yes"/>
      <point x="116" y="107"/>
      <point x="86" y="130"/>
      <point x="69" y="159" type="curve" smooth="yes"/>
      <point x="52" y="188"/>
      <point x="43" y="228"/>
      <point x="43" y="280" type="curve" smooth="yes"/>
      <point x="43" y="319"/>
      <point x="49" y="352"/>
      <point x="61" y="377" type="curve" smooth="yes"/>
      <point x="73" y="402"/>
      <point x="94" y="420"/>
      <point x="123" y="432" type="curve"/>
      <point x="98" y="442"/>
      <point x="80" y="459"/>
      <point x="71" y="483" type="curve" smooth="yes"/>
      <point x="61" y="506"/>
      <point x="56" y="535"/>
      <point x="56" y="569" type="curve" smooth="yes"/>
      <point x="56" y="622"/>
      <point x="69" y="661"/>
      <point x="96" y="688" type="curve" smooth="yes"/>
      <point x="122" y="714"/>
      <point x="160" y="727"/>
      <point x="210" y="727" type="curve" smooth="yes"/>
      <point x="266" y="727"/>
      <point x="305" y="713"/>
      <point x="327" y="685" type="curve" smooth="yes"/>
      <point x="348" y="657"/>
      <point x="359" y="613"/>
      <point x="359" y="553" type="curve"/>
      <point x="252" y="553" type="line"/>
      <point x="252" y="582"/>
      <point x="250" y="603"/>
      <point x="246" y="615" type="curve" smooth="yes"/>
      <point x="241" y="627"/>
      <point x="230" y="633"/>
      <point x="211" y="633" type="curve" smooth="yes"/>
      <point x="194" y="633"/>
      <point x="184" y="628"/>
      <point x="179" y="617" type="curve" smooth="yes"/>
      <point x="174" y="606"/>
      <point x="171" y="590"/>
      <point x="171" y="569" type="curve" smooth="yes"/>
      <point x="171" y="548"/>
      <point x="174" y="532"/>
      <point x="179" y="521" type="curve" smooth="yes"/>
      <point x="184" y="510"/>
      <point x="193" y="500"/>
      <point x="205" y="492" type="curve" smooth="yes"/>
      <point x="217" y="484"/>
      <point x="235" y="476"/>
      <point x="259" y="468" type="curve" smooth="yes"/>
      <point x="304" y="452"/>
      <point x="334" y="430"/>
      <point x="351" y="401" type="curve" smooth="yes"/>
      <point x="368" y="372"/>
      <point x="376" y="332"/>
      <point x="376" y="280" type="curve" smooth="yes"/>
      <point x="376" y="240"/>
      <point x="370" y="208"/>
      <point x="358" y="183" type="curve" smooth="yes"/>
      <point x="346" y="158"/>
      <point x="325" y="139"/>
      <point x="296" y="128" type="curve"/>
      <point x="322" y="117"/>
      <point x="340" y="100"/>
      <point x="350" y="77" type="curve" smooth="yes"/>
      <point x="360" y="54"/>
      <point x="365" y="24"/>
      <point x="365" y="-11" type="curve" smooth="yes"/>
      <point x="365" y="-118"/>
      <point x="313" y="-172"/>
      <point x="208" y="-172" type="curve" smooth="yes"/>
      <point x="152" y="-172"/>
      <point x="113" y="-158"/>
      <point x="90" y="-129" type="curve" smooth="yes"/>
      <point x="67" y="-101"/>
      <point x="56" y="-57"/>
    </contour>
    <contour>
      <point x="263" y="280" type="curve" smooth="yes"/>
      <point x="263" y="314"/>
      <point x="260" y="339"/>
      <point x="253" y="354" type="curve" smooth="yes"/>
      <point x="246" y="369"/>
      <point x="232" y="377"/>
      <point x="209" y="377" type="curve" smooth="yes"/>
      <point x="186" y="377"/>
      <point x="172" y="369"/>
      <point x="166" y="354" type="curve" smooth="yes"/>
      <point x="159" y="338"/>
      <point x="156" y="313"/>
      <point x="156" y="280" type="curve" smooth="yes"/>
      <point x="156" y="247"/>
      <point x="159" y="222"/>
      <point x="166" y="206" type="curve" smooth="yes"/>
      <point x="173" y="190"/>
      <point x="187" y="182"/>
      <point x="209" y="182" type="curve" smooth="yes"/>
      <point x="232" y="182"/>
      <point x="246" y="190"/>
      <point x="253" y="206" type="curve" smooth="yes"/>
      <point x="260" y="221"/>
      <point x="263" y="246"/>
    </contour>
  </outline>
</glyph>
<glyph name="registered" format="2">
  <advance width="438"/>
  <unicode hex="00AE"/>
  <outline>
    <contour>
      <point x="43" y="426"/>
      <point x="43" y="517" type="qcurve" smooth="yes"/>
      <point x="43" y="608"/>
      <point x="136" y="711"/>
      <point x="218" y="711" type="qcurve" smooth="yes"/>
      <point x="302" y="711"/>
      <point x="395" y="605"/>
      <point x="395" y="517" type="qcurve" smooth="yes"/>
      <point x="395" y="427"/>
      <point x="302" y="323"/>
      <point x="218" y="323" type="qcurve" smooth="yes"/>
      <point x="134" y="323"/>
    </contour>
    <contour>
      <point x="351" y="442"/>
      <point x="351" y="517" type="qcurve" smooth="yes"/>
      <point x="351" y="592"/>
      <point x="283" y="672"/>
      <point x="218" y="672" type="qcurve" smooth="yes"/>
      <point x="152" y="672"/>
      <point x="85" y="591"/>
      <point x="85" y="517" type="qcurve" smooth="yes"/>
      <point x="85" y="441"/>
      <point x="153" y="361"/>
      <point x="218" y="361" type="qcurve" smooth="yes"/>
      <point x="284" y="361"/>
    </contour>
    <contour>
      <point x="161" y="627" type="line"/>
      <point x="221" y="627" type="line" smooth="yes"/>
      <point x="284" y="627"/>
      <point x="285" y="562" type="qcurve" smooth="yes"/>
      <point x="285" y="524"/>
      <point x="260" y="506" type="qcurve"/>
      <point x="292" y="410" type="line"/>
      <point x="245" y="410" type="line"/>
      <point x="218" y="495" type="line"/>
      <point x="206" y="495" type="line"/>
      <point x="206" y="410" type="line"/>
      <point x="161" y="410" type="line"/>
    </contour>
    <contour>
      <point x="216" y="535" type="line" smooth="yes"/>
      <point x="229" y="535"/>
      <point x="240" y="546"/>
      <point x="240" y="561" type="qcurve" smooth="yes"/>
      <point x="240" y="576"/>
      <point x="229" y="586"/>
      <point x="216" y="586" type="qcurve" smooth="yes"/>
      <point x="206" y="586" type="line"/>
      <point x="206" y="535" type="line"/>
    </contour>
  </outline>
</glyph>
<glyph name="questiondown" format="2">
  <advance width="385"/>
  <unicode hex="00BF"/>
  <outline>
    <contour>
      <point x="27" y="-2" type="curve" smooth="yes"/>
      <point x="27" y="25"/>
      <point x="30" y="49"/>
      <point x="36" y="69" type="curve" smooth="yes"/>
      <point x="41" y="89"/>
      <point x="53" y="112"/>
      <point x="72" y="139" type="curve" smooth="yes"/>
      <point x="113" y="198" type="line" smooth="yes"/>
      <point x="125" y="215"/>
      <point x="133" y="231"/>
      <point x="136" y="244" type="curve" smooth="yes"/>
      <point x="139" y="257"/>
      <point x="140" y="274"/>
      <point x="140" y="297" type="curve" smooth="yes"/>
      <point x="140" y="338" type="line"/>
      <point x="252" y="338" type="line"/>
      <point x="252" y="297" type="line" smooth="yes"/>
      <point x="252" y="266"/>
      <point x="250" y="241"/>
      <point x="246" y="224" type="curve" smooth="yes"/>
      <point x="242" y="207"/>
      <point x="231" y="184"/>
      <point x="212" y="155" type="curve" smooth="yes"/>
      <point x="176" y="98" type="line" smooth="yes"/>
      <point x="165" y="81"/>
      <point x="158" y="65"/>
      <point x="154" y="52" type="curve" smooth="yes"/>
      <point x="149" y="39"/>
      <point x="147" y="21"/>
      <point x="147" y="0" type="curve" smooth="yes"/>
      <point x="147" y="-43"/>
      <point x="164" y="-65"/>
      <point x="197" y="-65" type="curve" smooth="yes"/>
      <point x="218" y="-65"/>
      <point x="232" y="-57"/>
      <point x="238" y="-42" type="curve" smooth="yes"/>
      <point x="243" y="-27"/>
      <point x="246" y="-1"/>
      <point x="246" y="36" type="curve"/>
      <point x="365" y="36" type="line"/>
      <point x="365" y="-34"/>
      <point x="352" y="-86"/>
      <point x="325" y="-120" type="curve" smooth="yes"/>
      <point x="298" y="-155"/>
      <point x="255" y="-172"/>
      <point x="196" y="-172" type="curve" smooth="yes"/>
      <point x="144" y="-172"/>
      <point x="103" y="-157"/>
      <point x="73" y="-127" type="curve" smooth="yes"/>
      <point x="42" y="-97"/>
      <point x="27" y="-55"/>
    </contour>
    <contour>
      <point x="140" y="541" type="line"/>
      <point x="252" y="541" type="line"/>
      <point x="252" y="411" type="line"/>
      <point x="140" y="411" type="line"/>
    </contour>
  </outline>
</glyph>
<glyph name="eth" format="2">
  <advance width="408"/>
  <unicode hex="00F0"/>
  <outline>
    <contour>
      <point x="370" y="286" type="curve" smooth="yes"/>
      <point x="370" y="181" type="line" smooth="yes"/>
      <point x="370" y="119"/>
      <point x="356" y="72"/>
      <point x="328" y="39" type="curve" smooth="yes"/>
      <point x="299" y="6"/>
      <point x="258" y="-10"/>
      <point x="203" y="-10" type="curve" smooth="yes"/>
      <point x="149" y="-10"/>
      <point x="108" y="6"/>
      <point x="81" y="39" type="curve" smooth="yes"/>
      <point x="53" y="71"/>
      <point x="39" y="118"/>
      <point x="39" y="181" type="curve" smooth="yes"/>
      <point x="39" y="292" type="line" smooth="yes"/>
      <point x="39" y="351"/>
      <point x="50" y="396"/>
      <point x="73" y="427" type="curve" smooth="yes"/>
      <point x="95" y="458"/>
      <point x="128" y="473"/>
      <point x="172" y="473" type="curve" smooth="yes"/>
      <point x="190" y="473"/>
      <point x="207" y="470"/>
      <point x="224" y="463" type="curve"/>
      <point x="179" y="551" type="line"/>
      <point x="93" y="523" type="line"/>
      <point x="68" y="599" type="line"/>
      <point x="141" y="623" type="line"/>
      <point x="94" y="715" type="line"/>
      <point x="208" y="715" type="line"/>
      <point x="239" y="653" type="line"/>
      <point x="314" y="678" type="line"/>
      <point x="339" y="601" type="line"/>
      <point x="275" y="581" type="line"/>
      <point x="303" y="527" type="line" smooth="yes"/>
      <point x="328" y="478"/>
      <point x="346" y="436"/>
      <point x="356" y="403" type="curve" smooth="yes"/>
      <point x="365" y="369"/>
      <point x="370" y="330"/>
    </contour>
    <contour>
      <point x="251" y="303" type="line" smooth="yes"/>
      <point x="251" y="322"/>
      <point x="247" y="337"/>
      <point x="239" y="347" type="curve" smooth="yes"/>
      <point x="231" y="356"/>
      <point x="220" y="361"/>
      <point x="205" y="361" type="curve" smooth="yes"/>
      <point x="190" y="361"/>
      <point x="178" y="356"/>
      <point x="170" y="347" type="curve" smooth="yes"/>
      <point x="162" y="337"/>
      <point x="158" y="322"/>
      <point x="158" y="303" type="curve" smooth="yes"/>
      <point x="158" y="169" type="line" smooth="yes"/>
      <point x="158" y="148"/>
      <point x="162" y="132"/>
      <point x="170" y="121" type="curve" smooth="yes"/>
      <point x="178" y="110"/>
      <point x="190" y="104"/>
      <point x="205" y="104" type="curve" smooth="yes"/>
      <point x="220" y="104"/>
      <point x="232" y="110"/>
      <point x="240" y="121" type="curve" smooth="yes"/>
      <point x="247" y="132"/>
      <point x="251" y="148"/>
      <point x="251" y="169" type="curve" smooth="yes"/>
    </contour>
  </outline>
</glyph>
<glyph name="aogonek" format="2">
  <advance width="414"/>
  <unicode hex="0105"/>
  <outline>
    <component base="a" xOffset="0" yOffset="0"/>
    <contour>
      <point x="284" y="13" type="line"/>
      <point x="372" y="13" type="line"/>
      <point x="372" y="1" type="line"/>
      <point x="295" y="-49" type="line"/>
      <point x="316" y="-75"/>
      <point x="337" y="-72"/>
      <point x="372" y="-73" type="curve"/>
      <point x="372" y="-162" type="line"/>
      <point x="319" y="-161"/>
      <point x="277" y="-144"/>
      <point x="246" y="-109" type="curve" smooth="yes"/>
      <point x="229" y="-92"/>
      <point x="218" y="-69"/>
      <point x="210" y="-41" type="curve"/>
    </contour>
  </outline>
</glyph>
<glyph name="eogonek" format="2">
  <advance width="420"/>
  <unicode hex="0119"/>
  <outline>
    <contour>
      <point x="235" y="17" type="line"/>
      <point x="303" y="17" type="line"/>
      <point x="226" y="-66" type="line"/>
      <point x="247" y="-101"/>
      <point x="268" y="-97"/>
      <point x="303" y="-98" type="curve"/>
      <point x="303" y="-218" type="line"/>
      <point x="250" y="-216"/>
      <point x="208" y="-194"/>
      <point x="177" y="-147" type="curve" smooth="yes"/>
      <point x="160" y="-124"/>
      <point x="149" y="-93"/>
      <point x="141" y="-56" type="curve"/>
    </contour>
    <component base="e"/>
  </outline>
</glyph>
<glyph name="gcommaaccent" format="2">
  <advance width="419"/>
  <unicode hex="0123"/>
  <outline>
    <component base="g"/>
    <contour>
      <point x="246" y="564" type="line"/>
      <point x="152" y="564" type="line"/>
      <point x="152" y="624" type="line"/>
      <point x="246" y="707" type="line"/>
    </contour>
  </outline>
</glyph>
<glyph name="Hbar" format="2">
  <advance width="471"/>
  <unicode hex="0126"/>
  <outline>
    <component base="H"/>
    <contour>
      <point x="9" y="631" type="line"/>
      <point x="461" y="631" type="line"/>
      <point x="461" y="518" type="line"/>
      <point x="9" y="518" type="line"/>
    </contour>
  </outline>
</glyph>
<glyph name="Iogonek" format="2">
  <advance width="219"/>
  <unicode hex="012E"/>
  <outline>
    <component base="I" xOffset="0" yOffset="0"/>
    <contour>
      <point x="63" y="13" type="line"/>
      <point x="171" y="13" type="line"/>
      <point x="171" y="1" type="line"/>
      <point x="94" y="-49" type="line"/>
      <point x="115" y="-75"/>
      <point x="136" y="-72"/>
      <point x="171" y="-73" type="curve"/>
      <point x="171" y="-162" type="line"/>
      <point x="118" y="-161"/>
      <point x="76" y="-144"/>
      <point x="45" y="-109" type="curve" smooth="yes"/>
      <point x="28" y="-92"/>
      <point x="17" y="-69"/>
      <point x="9" y="-41" type="curve"/>
    </contour>
  </outline>
</glyph>
<glyph name="iogonek" format="2">
  <advance width="210"/>
  <unicode hex="012F"/>
  <outline>
    <component base="i"/>
    <contour>
      <point x="68" y="13" type="line"/>
      <point x="163" y="13" type="line"/>
      <point x="163" y="1" type="line"/>
      <point x="86" y="-49" type="line"/>
      <point x="107" y="-75"/>
      <point x="128" y="-72"/>
      <point x="163" y="-73" type="curve"/>
      <point x="163" y="-162" type="line"/>
      <point x="110" y="-161"/>
      <point x="68" y="-144"/>
      <point x="37" y="-109" type="curve" smooth="yes"/>
      <point x="20" y="-92"/>
      <point x="9" y="-69"/>
      <point x="1" y="-41" type="curve"/>
    </contour>
  </outline>
</glyph>
<glyph name="ij" format="2">
  <advance width="418"/>
  <unicode hex="0133"/>
  <outline>
    <contour>
      <point x="39" y="541" type="line"/>
      <point x="158" y="541" type="line"/>
      <point x="158" y="237" type="line" smooth="yes"/>
      <point x="158" y="206"/>
      <point x="162" y="183"/>
      <point x="171" y="169" type="curve"/>
      <point x="179" y="155"/>
      <point x="192" y="148"/>
      <point x="210" y="148" type="curve"/>
      <point x="245" y="149"/>
      <point x="262" y="178"/>
      <point x="262" y="237" type="curve" smooth="yes"/>
      <point x="262" y="541" type="line"/>
      <point x="378" y="541" type="line"/>
      <point x="378" y="6" type="line" smooth="yes"/>
      <point x="378" y="-49"/>
      <point x="363" y="-92"/>
      <point x="334" y="-124" type="curve" smooth="yes"/>
      <point x="304" y="-156"/>
      <point x="263" y="-172"/>
      <point x="210" y="-172" type="curve" smooth="yes"/>
      <point x="160" y="-172"/>
      <point x="121" y="-159"/>
      <point x="93" y="-133" type="curve" smooth="yes"/>
      <point x="64" y="-107"/>
      <point x="49" y="-69"/>
      <point x="48" y="-18" type="curve"/>
      <point x="159" y="-18" type="line"/>
      <point x="159" y="-35"/>
      <point x="163" y="-47"/>
      <point x="172" y="-56" type="curve" smooth="yes"/>
      <point x="181" y="-65"/>
      <point x="194" y="-70"/>
      <point x="211" y="-70" type="curve" smooth="yes"/>
      <point x="228" y="-70"/>
      <point x="242" y="-64"/>
      <point x="251" y="-53" type="curve" smooth="yes"/>
      <point x="260" y="-42"/>
      <point x="264" y="-26"/>
      <point x="264" y="-5" type="curve" smooth="yes"/>
      <point x="264" y="88" type="line"/>
      <point x="238" y="57"/>
      <point x="207" y="42"/>
      <point x="171" y="42" type="curve" smooth="yes"/>
      <point x="132" y="42"/>
      <point x="100" y="56"/>
      <point x="76" y="84" type="curve" smooth="yes"/>
      <point x="51" y="112"/>
      <point x="39" y="156"/>
      <point x="39" y="217" type="curve" smooth="yes"/>
    </contour>
    <contour>
      <point x="39" y="707" type="line"/>
      <point x="158" y="707" type="line"/>
      <point x="158" y="607" type="line"/>
      <point x="39" y="607" type="line"/>
    </contour>
    <contour>
      <point x="262" y="707" type="line"/>
      <point x="378" y="707" type="line"/>
      <point x="378" y="607" type="line"/>
      <point x="262" y="607" type="line"/>
    </contour>
  </outline>
</glyph>
<glyph name="Eng" format="2">
  <advance width="485"/>
  <unicode hex="014A"/>
  <outline>
    <contour>
      <point x="442" y="707" type="line"/>
      <point x="316" y="707" type="line"/>
      <point x="316" y="313" type="line"/>
      <point x="169" y="707" type="line"/>
      <point x="43" y="707" type="line"/>
      <point x="43" y="0" type="line"/>
      <point x="169" y="0" type="line"/>
      <point x="169" y="377" type="line"/>
      <point x="316" y="0" type="line"/>
      <point x="316" y="-6" type="line" smooth="yes"/>
      <point x="316" y="-52"/>
      <point x="301" y="-68"/>
      <point x="258" y="-68" type="curve" smooth="yes"/>
      <point x="253" y="-68" type="line"/>
      <point x="253" y="-174" type="line"/>
      <point x="259" y="-174" type="line" smooth="yes"/>
      <point x="381" y="-174"/>
      <point x="442" y="-118"/>
      <point x="442" y="-6" type="curve" smooth="yes"/>
    </contour>
  </outline>
</glyph>
<glyph name="OE" format="2">
  <advance width="656"/>
  <unicode hex="0152"/>
  <outline>
    <contour>
      <point x="440" y="593" type="line"/>
      <point x="440" y="416" type="line"/>
      <point x="604" y="416" type="line"/>
      <point x="604" y="303" type="line"/>
      <point x="440" y="303" type="line"/>
      <point x="440" y="113" type="line"/>
      <point x="631" y="113" type="line"/>
      <point x="631" y="0" type="line"/>
      <point x="332" y="0" type="line"/>
      <point x="332" y="29" type="line"/>
      <point x="300" y="4"/>
      <point x="263" y="-8"/>
      <point x="220" y="-8" type="curve" smooth="yes"/>
      <point x="161" y="-8"/>
      <point x="116" y="9"/>
      <point x="85" y="43" type="curve" smooth="yes"/>
      <point x="54" y="76"/>
      <point x="39" y="127"/>
      <point x="39" y="195" type="curve" smooth="yes"/>
      <point x="39" y="513" type="line" smooth="yes"/>
      <point x="39" y="581"/>
      <point x="55" y="632"/>
      <point x="88" y="666" type="curve" smooth="yes"/>
      <point x="120" y="700"/>
      <point x="166" y="717"/>
      <point x="226" y="717" type="curve" smooth="yes"/>
      <point x="266" y="717"/>
      <point x="301" y="706"/>
      <point x="332" y="685" type="curve"/>
      <point x="332" y="707" type="line"/>
      <point x="631" y="707" type="line"/>
      <point x="631" y="593" type="line"/>
    </contour>
    <contour>
      <point x="314" y="493" type="line" smooth="yes"/>
      <point x="314" y="529"/>
      <point x="308" y="556"/>
      <point x="296" y="575" type="curve" smooth="yes"/>
      <point x="284" y="594"/>
      <point x="266" y="603"/>
      <point x="241" y="603" type="curve" smooth="yes"/>
      <point x="214" y="603"/>
      <point x="195" y="594"/>
      <point x="183" y="576" type="curve" smooth="yes"/>
      <point x="171" y="557"/>
      <point x="165" y="530"/>
      <point x="165" y="493" type="curve" smooth="yes"/>
      <point x="165" y="209" type="line" smooth="yes"/>
      <point x="165" y="140"/>
      <point x="190" y="106"/>
      <point x="241" y="105" type="curve" smooth="yes"/>
      <point x="265" y="105"/>
      <point x="283" y="114"/>
      <point x="296" y="133" type="curve" smooth="yes"/>
      <point x="308" y="151"/>
      <point x="314" y="176"/>
      <point x="314" y="209" type="curve" smooth="yes"/>
    </contour>
  </outline>
</glyph>
<glyph name="jcaron" format="2">
  <advance width="210"/>
  <unicode hex="01F0"/>
  <outline>
    <contour>
      <point x="-25" y="-55" type="line"/>
      <point x="-19" y="-55" type="line" smooth="yes"/>
      <point x="2" y="-55"/>
      <point x="18" y="-50"/>
      <point x="29" y="-39" type="curve" smooth="yes"/>
      <point x="41" y="-28"/>
      <point x="46" y="-10"/>
      <point x="46" y="13" type="curve" smooth="yes"/>
      <point x="46" y="541" type="line"/>
      <point x="165" y="541" type="line"/>
      <point x="165" y="6" type="line" smooth="yes"/>
      <point x="165" y="-106"/>
      <point x="104" y="-162"/>
      <point x="-18" y="-162" type="curve" smooth="yes"/>
      <point x="-25" y="-162" type="line"/>
    </contour>
    <contour>
      <point x="-42" y="743" type="line"/>
      <point x="47" y="743" type="line"/>
      <point x="105" y="663" type="line"/>
      <point x="162" y="743" type="line"/>
      <point x="251" y="743" type="line"/>
      <point x="146" y="592" type="line"/>
      <point x="61" y="592" type="line"/>
    </contour>
  </outline>
</glyph>
<glyph name="dotlessj" format="2">
  <advance width="210"/>
  <unicode hex="0237"/>
  <outline>
    <contour>
      <point x="-25" y="-55" type="line"/>
      <point x="-19" y="-55" type="line" smooth="yes"/>
      <point x="2" y="-55"/>
      <point x="18" y="-50"/>
      <point x="29" y="-39" type="curve" smooth="yes"/>
      <point x="41" y="-28"/>
      <point x="46" y="-10"/>
      <point x="46" y="13" type="curve" smooth="yes"/>
      <point x="46" y="541" type="line"/>
      <point x="165" y="541" type="line"/>
      <point x="165" y="6" type="line" smooth="yes"/>
      <point x="165" y="-106"/>
      <point x="104" y="-162"/>
      <point x="-18" y="-162" type="curve" smooth="yes"/>
      <point x="-25" y="-162" type="line"/>
    </contour>
  </outline>
</glyph>
<glyph name="caron" format="2">
  <advance width="419"/>
  <unicode hex="02C7"/>
  <outline>
    <contour>
      <point x="63" y="746" type="line"/>
      <point x="152" y="746" type="line"/>
      <point x="210" y="666" type="line"/>
      <point x="267" y="746" type="line"/>
      <point x="356" y="746" type="line"/>
      <point x="251" y="595" type="line"/>
      <point x="166" y="595" type="line"/>
    </contour>
  </outline>
</glyph>
<glyph name="ogonek" format="2">
  <advance width="512"/>
  <unicode hex="02DB"/>
  <outline>
    <contour>
      <point x="235" y="13" type="line"/>
      <point x="303" y="13" type="line"/>
      <point x="303" y="1" type="line"/>
      <point x="226" y="-49" type="line"/>
      <point x="247" y="-75"/>
      <point x="268" y="-72"/>
      <point x="303" y="-73" type="curve"/>
      <point x="303" y="-162" type="line"/>
      <point x="250" y="-161"/>
      <point x="208" y="-144"/>
      <point x="177" y="-109" type="curve" smooth="yes"/>
      <point x="160" y="-92"/>
      <point x="149" y="-69"/>
      <point x="141" y="-41" type="curve"/>
    </contour>
  </outline>
</glyph>
<glyph name="brevecmb" format="2">
  <unicode hex="0306"/>
  <outline>
    <contour>
      <point x="0" y="573" type="curve" smooth="yes"/>
      <point x="-83" y="573"/>
      <point x="-127" y="621"/>
      <point x="-127" y="707" type="curve" smooth="yes"/>
      <point x="-127" y="725" type="line"/>
      <point x="-55" y="725" type="line"/>
      <point x="-55" y="709" type="line" smooth="yes"/>
      <point x="-55" y="654"/>
      <point x="-37" y="638"/>
      <point x="0" y="638" type="curve" smooth="yes"/>
      <point x="37" y="638"/>
      <point x="55" y="654"/>
      <point x="55" y="709" type="curve" smooth="yes"/>
      <point x="55" y="725" type="line"/>
      <point x="127" y="725" type="line"/>
      <point x="127" y="707" type="line" smooth="yes"/>
      <point x="127" y="621"/>
      <point x="83" y="573"/>
    </contour>
  </outline>
</glyph>
<glyph name="caroncmb.alt" format="2">
  <unicode hex="030C"/>
  <outline>
    <contour>
      <point x="30" y="707" type="line"/>
      <point x="125" y="707" type="line"/>
      <point x="125" y="600" type="line"/>
      <point x="30" y="517" type="line"/>
    </contour>
  </outline>
</glyph>
<glyph name="cedillacmb" format="2">
  <unicode hex="0327"/>
  <outline>
    <contour>
      <point x="232" y="10" type="line"/>
      <point x="323" y="10" type="line"/>
      <point x="262" y="-162" type="line"/>
      <point x="158" y="-162" type="line"/>
    </contour>
  </outline>
</glyph>
<glyph name="alpha" format="2">
  <advance width="481"/>
  <unicode hex="03B1"/>
  <outline>
    <contour>
      <point x="39" y="187" type="line" smooth="yes"/>
      <point x="39" y="118"/>
      <point x="54" y="69"/>
      <point x="83" y="38" type="curve" smooth="yes"/>
      <point x="112" y="7"/>
      <point x="155" y="-8"/>
      <point x="211" y="-8" type="curve" smooth="yes"/>
      <point x="267" y="-8"/>
      <point x="310" y="7"/>
      <point x="339" y="38" type="curve" smooth="yes"/>
      <point x="341" y="41" type="line"/>
      <point x="367" y="23"/>
      <point x="400" y="14"/>
      <point x="441" y="14" type="curve" smooth="yes"/>
      <point x="441" y="14"/>
      <point x="441" y="14"/>
      <point x="442" y="14" type="curve"/>
      <point x="442" y="115" type="line"/>
      <point x="441" y="115"/>
      <point x="441" y="115"/>
      <point x="440" y="115" type="curve" smooth="yes"/>
      <point x="425" y="115"/>
      <point x="413" y="122"/>
      <point x="405" y="134" type="curve" smooth="yes"/>
      <point x="397" y="147"/>
      <point x="393" y="166"/>
      <point x="393" y="194" type="curve" smooth="yes"/>
      <point x="393" y="346" type="line" smooth="yes"/>
      <point x="393" y="374"/>
      <point x="397" y="393"/>
      <point x="405" y="406" type="curve" smooth="yes"/>
      <point x="413" y="418"/>
      <point x="425" y="425"/>
      <point x="440" y="425" type="curve" smooth="yes"/>
      <point x="441" y="425"/>
      <point x="441" y="425"/>
      <point x="442" y="425" type="curve"/>
      <point x="442" y="527" type="line"/>
      <point x="441" y="527"/>
      <point x="441" y="527"/>
      <point x="441" y="527" type="curve" smooth="yes"/>
      <point x="400" y="527"/>
      <point x="367" y="518"/>
      <point x="341" y="500" type="curve"/>
      <point x="341" y="501"/>
      <point x="340" y="502"/>
      <point x="339" y="503" type="curve" smooth="yes"/>
      <point x="310" y="534"/>
      <point x="267" y="549"/>
      <point x="211" y="549" type="curve" smooth="yes"/>
      <point x="155" y="549"/>
      <point x="112" y="534"/>
      <point x="83" y="503" type="curve" smooth="yes"/>
      <point x="54" y="472"/>
      <point x="39" y="422"/>
      <point x="39" y="353" type="curve" smooth="yes"/>
    </contour>
    <contour>
      <point x="263" y="186" type="line" smooth="yes"/>
      <point x="263" y="155"/>
      <point x="259" y="133"/>
      <point x="250" y="119" type="curve" smooth="yes"/>
      <point x="241" y="105"/>
      <point x="228" y="98"/>
      <point x="210" y="98" type="curve" smooth="yes"/>
      <point x="193" y="98"/>
      <point x="180" y="105"/>
      <point x="171" y="119" type="curve" smooth="yes"/>
      <point x="162" y="133"/>
      <point x="158" y="155"/>
      <point x="158" y="186" type="curve" smooth="yes"/>
      <point x="158" y="354" type="line" smooth="yes"/>
      <point x="158" y="385"/>
      <point x="162" y="407"/>
      <point x="171" y="421" type="curve" smooth="yes"/>
      <point x="180" y="435"/>
      <point x="193" y="442"/>
      <point x="210" y="442" type="curve" smooth="yes"/>
      <point x="228" y="442"/>
      <point x="241" y="435"/>
      <point x="250" y="421" type="curve" smooth="yes"/>
      <point x="259" y="407"/>
      <point x="263" y="385"/>
      <point x="263" y="354" type="curve" smooth="yes"/>
    </contour>
  </outline>
</glyph>
<glyph name="Eukrcyr" format="2">
  <advance width="479"/>
  <unicode hex="0404"/>
  <guideline x="244" y="0" angle="90" name="h1"/>
  <anchor x="244" y="770" name="top"/>
  <outline>
    <contour>
      <point x="165" y="416" type="line"/>
      <point x="306" y="416" type="line"/>
      <point x="306" y="303" type="line"/>
      <point x="165" y="303" type="line"/>
      <point x="165" y="209" type="line" smooth="yes"/>
      <point x="165" y="140"/>
      <point x="190" y="105"/>
      <point x="241" y="105" type="curve" smooth="yes"/>
      <point x="288" y="105"/>
      <point x="314" y="138"/>
      <point x="314" y="199" type="curve" smooth="yes"/>
      <point x="314" y="217" type="line"/>
      <point x="439" y="217" type="line"/>
      <point x="439" y="198" type="line" smooth="yes"/>
      <point x="439" y="69"/>
      <point x="364" y="-8"/>
      <point x="237" y="-8" type="curve" smooth="yes"/>
      <point x="111" y="-8"/>
      <point x="39" y="65"/>
      <point x="39" y="195" type="curve" smooth="yes"/>
      <point x="39" y="513" type="line" smooth="yes"/>
      <point x="39" y="641"/>
      <point x="116" y="717"/>
      <point x="244" y="717" type="curve" smooth="yes"/>
      <point x="369" y="717"/>
      <point x="440" y="642"/>
      <point x="440" y="510" type="curve" smooth="yes"/>
      <point x="440" y="488" type="line"/>
      <point x="314" y="488" type="line"/>
      <point x="314" y="509" type="line" smooth="yes"/>
      <point x="314" y="568"/>
      <point x="287" y="603"/>
      <point x="241" y="603" type="curve" smooth="yes"/>
      <point x="190" y="603"/>
      <point x="165" y="567"/>
      <point x="165" y="493" type="curve" smooth="yes"/>
    </contour>
  </outline>
</glyph>
<glyph name="Njecyr" format="2">
  <advance width="715"/>
  <unicode hex="040A"/>
  <outline>
    <component base="H"/>
    <contour>
      <point x="398" y="446" type="line"/>
      <point x="483" y="446" type="line" smooth="yes"/>
      <point x="617" y="446"/>
      <point x="677" y="377"/>
      <point x="677" y="223" type="curve" smooth="yes"/>
      <point x="677" y="67"/>
      <point x="618" y="0"/>
      <point x="483" y="0" type="curve" smooth="yes"/>
      <point x="398" y="0" type="line"/>
      <point x="398" y="113" type="line"/>
      <point x="479" y="113" type="line" smooth="yes"/>
      <point x="529" y="113"/>
      <point x="551" y="147"/>
      <point x="551" y="223" type="curve" smooth="yes"/>
      <point x="551" y="299"/>
      <point x="529" y="332"/>
      <point x="479" y="332" type="curve" smooth="yes"/>
      <point x="398" y="332" type="line"/>
    </contour>
  </outline>
</glyph>
<glyph name="Tshecyr" format="2">
  <advance width="555"/>
  <unicode hex="040B"/>
  <outline>
    <contour>
      <point x="4" y="707" type="line"/>
      <point x="374" y="707" type="line"/>
      <point x="374" y="593" type="line"/>
      <point x="252" y="593" type="line"/>
      <point x="252" y="446" type="line"/>
      <point x="276" y="460"/>
      <point x="300" y="466"/>
      <point x="323" y="466" type="curve" smooth="yes"/>
      <point x="457" y="466"/>
      <point x="517" y="377"/>
      <point x="517" y="223" type="curve" smooth="yes"/>
      <point x="517" y="0" type="line"/>
      <point x="391" y="0" type="line"/>
      <point x="391" y="223" type="line" smooth="yes"/>
      <point x="391" y="299"/>
      <point x="369" y="352"/>
      <point x="319" y="352" type="curve" smooth="yes"/>
      <point x="297" y="352"/>
      <point x="274" y="346"/>
      <point x="252" y="332" type="curve"/>
      <point x="252" y="0" type="line"/>
      <point x="127" y="0" type="line"/>
      <point x="127" y="593" type="line"/>
      <point x="4" y="593" type="line"/>
    </contour>
  </outline>
</glyph>
<glyph name="Becyr" format="2">
  <advance width="465"/>
  <unicode hex="0411"/>
  <outline>
    <contour>
      <point x="148" y="0" type="line"/>
      <point x="233" y="0" type="line" smooth="yes"/>
      <point x="368" y="0"/>
      <point x="427" y="67"/>
      <point x="427" y="223" type="curve" smooth="yes"/>
      <point x="427" y="377"/>
      <point x="367" y="446"/>
      <point x="233" y="446" type="curve" smooth="yes"/>
      <point x="148" y="446" type="line"/>
      <point x="148" y="332" type="line"/>
      <point x="229" y="332" type="line" smooth="yes"/>
      <point x="279" y="332"/>
      <point x="301" y="299"/>
      <point x="301" y="223" type="curve" smooth="yes"/>
      <point x="301" y="147"/>
      <point x="279" y="113"/>
      <point x="229" y="113" type="curve" smooth="yes"/>
      <point x="148" y="113" type="line"/>
    </contour>
    <contour>
      <point x="149" y="593" type="line"/>
      <point x="358" y="593" type="line"/>
      <point x="358" y="707" type="line"/>
      <point x="149" y="707" type="line"/>
    </contour>
    <contour>
      <point x="43" y="0" type="line"/>
      <point x="169" y="0" type="line"/>
      <point x="169" y="707" type="line"/>
      <point x="43" y="707" type="line"/>
    </contour>
  </outline>
</glyph>
<glyph name="Gecyr" format="2">
  <advance width="379"/>
  <unicode hex="0413"/>
  <guideline x="215" y="0" angle="90" name="h1"/>
  <anchor x="215" y="770" name="top"/>
  <outline>
    <contour>
      <point x="43" y="707" type="line"/>
      <point x="358" y="707" type="line"/>
      <point x="358" y="593" type="line"/>
      <point x="169" y="593" type="line"/>
      <point x="169" y="0" type="line"/>
      <point x="43" y="0" type="line"/>
    </contour>
  </outline>
</glyph>
<glyph name="Decyr" format="2">
  <advance width="606"/>
  <unicode hex="0414"/>
  <outline>
    <contour>
      <point x="172" y="707" type="line"/>
      <point x="528" y="707" type="line"/>
      <point x="528" y="114" type="line"/>
      <point x="596" y="114" type="line"/>
      <point x="596" y="-170" type="line"/>
      <point x="470" y="-170" type="line"/>
      <point x="470" y="0" type="line"/>
      <point x="136" y="0" type="line"/>
      <point x="136" y="-170" type="line"/>
      <point x="10" y="-170" type="line"/>
      <point x="10" y="114" type="line"/>
      <point x="42" y="114" type="line"/>
      <point x="109" y="159"/>
      <point x="127" y="218"/>
      <point x="148" y="450" type="curve" smooth="yes"/>
    </contour>
    <contour>
      <point x="268" y="396" type="line" smooth="yes"/>
      <point x="255" y="257"/>
      <point x="236" y="184"/>
      <point x="201" y="114" type="curve"/>
      <point x="402" y="114" type="line"/>
      <point x="402" y="593" type="line"/>
      <point x="287" y="593" type="line"/>
    </contour>
  </outline>
</glyph>
<glyph name="Zhecyr" format="2">
  <advance width="743"/>
  <unicode hex="0416"/>
  <outline>
    <contour>
      <point x="414" y="303" type="line"/>
      <point x="557" y="303" type="line"/>
      <point x="557" y="416" type="line"/>
      <point x="414" y="416" type="line"/>
    </contour>
    <contour>
      <point x="309" y="0" type="line"/>
      <point x="434" y="0" type="line"/>
      <point x="434" y="707" type="line"/>
      <point x="309" y="707" type="line"/>
    </contour>
    <contour>
      <point x="599" y="0" type="line"/>
      <point x="733" y="0" type="line"/>
      <point x="557" y="430" type="line"/>
      <point x="471" y="316" type="line"/>
    </contour>
    <contour>
      <point x="453" y="316" type="line"/>
      <point x="539" y="316" type="line"/>
      <point x="721" y="707" type="line"/>
      <point x="595" y="707" type="line"/>
      <point x="453" y="398" type="line"/>
    </contour>
    <contour>
      <point x="186" y="303" type="line"/>
      <point x="329" y="303" type="line"/>
      <point x="329" y="416" type="line"/>
      <point x="186" y="416" type="line"/>
    </contour>
    <contour>
      <point x="309" y="0" type="line"/>
      <point x="434" y="0" type="line"/>
      <point x="434" y="707" type="line"/>
      <point x="309" y="707" type="line"/>
    </contour>
    <contour>
      <point x="10" y="0" type="line"/>
      <point x="144" y="0" type="line"/>
      <point x="272" y="316" type="line"/>
      <point x="186" y="430" type="line"/>
    </contour>
    <contour>
      <point x="204" y="316" type="line"/>
      <point x="290" y="316" type="line"/>
      <point x="290" y="398" type="line"/>
      <point x="148" y="707" type="line"/>
      <point x="22" y="707" type="line"/>
    </contour>
  </outline>
</glyph>
<glyph name="Zecyr" format="2">
  <advance width="466"/>
  <unicode hex="0417"/>
  <outline>
    <contour>
      <point x="44" y="193" type="line"/>
      <point x="44" y="182" type="line" smooth="yes"/>
      <point x="44" y="65"/>
      <point x="103" y="-8"/>
      <point x="244" y="-8" type="curve" smooth="yes"/>
      <point x="365" y="-8"/>
      <point x="428" y="65"/>
      <point x="428" y="205" type="curve" smooth="yes"/>
      <point x="428" y="221" type="line" smooth="yes"/>
      <point x="428" y="304"/>
      <point x="403" y="347"/>
      <point x="349" y="371" type="curve"/>
      <point x="402" y="395"/>
      <point x="426" y="441"/>
      <point x="426" y="516" type="curve" smooth="yes"/>
      <point x="426" y="530" type="line" smooth="yes"/>
      <point x="426" y="637"/>
      <point x="354" y="717"/>
      <point x="244" y="717" type="curve" smooth="yes"/>
      <point x="99" y="717"/>
      <point x="44" y="635"/>
      <point x="44" y="526" type="curve" smooth="yes"/>
      <point x="44" y="514" type="line"/>
      <point x="170" y="514" type="line"/>
      <point x="170" y="526" type="line" smooth="yes"/>
      <point x="170" y="566"/>
      <point x="178" y="604"/>
      <point x="237" y="604" type="curve" smooth="yes"/>
      <point x="288" y="604"/>
      <point x="300" y="570"/>
      <point x="300" y="508" type="curve" smooth="yes"/>
      <point x="300" y="496" type="line" smooth="yes"/>
      <point x="300" y="443"/>
      <point x="284" y="423"/>
      <point x="231" y="423" type="curve" smooth="yes"/>
      <point x="200" y="423" type="line"/>
      <point x="200" y="314" type="line"/>
      <point x="230" y="314" type="line" smooth="yes"/>
      <point x="284" y="314"/>
      <point x="302" y="289"/>
      <point x="302" y="229" type="curve" smooth="yes"/>
      <point x="302" y="214" type="line" smooth="yes"/>
      <point x="302" y="136"/>
      <point x="283" y="105"/>
      <point x="236" y="105" type="curve" smooth="yes"/>
      <point x="197" y="105"/>
      <point x="170" y="136"/>
      <point x="170" y="182" type="curve" smooth="yes"/>
      <point x="170" y="193" type="line"/>
    </contour>
  </outline>
</glyph>
<glyph name="Icyr" format="2">
  <advance width="482"/>
  <unicode hex="0418"/>
  <guideline x="227" y="0" angle="90" name="h1"/>
  <anchor x="227" y="770" name="top"/>
  <outline>
    <contour>
      <point x="43" y="0" type="line"/>
      <point x="199" y="0" type="line"/>
      <point x="289" y="342" type="line" smooth="yes"/>
      <point x="298" y="374"/>
      <point x="314" y="443"/>
      <point x="321" y="477" type="curve"/>
      <point x="324" y="477" type="line"/>
      <point x="316" y="440"/>
      <point x="313" y="344"/>
      <point x="313" y="307" type="curve" smooth="yes"/>
      <point x="313" y="0" type="line"/>
      <point x="439" y="0" type="line"/>
      <point x="439" y="707" type="line"/>
      <point x="283" y="707" type="line"/>
      <point x="182" y="361" type="line" smooth="yes"/>
      <point x="172" y="329"/>
      <point x="166" y="285"/>
      <point x="161" y="230" type="curve"/>
      <point x="158" y="230" type="line"/>
      <point x="164" y="280"/>
      <point x="169" y="363"/>
      <point x="169" y="400" type="curve" smooth="yes"/>
      <point x="169" y="707" type="line"/>
      <point x="43" y="707" type="line"/>
    </contour>
  </outline>
</glyph>
<glyph name="Kacyr" format="2">
  <advance width="471"/>
  <unicode hex="041A"/>
  <guideline x="236" y="0" angle="90" name="h1"/>
  <anchor x="236" y="770" name="top"/>
  <outline>
    <contour>
      <point x="148" y="303" type="line"/>
      <point x="291" y="303" type="line"/>
      <point x="291" y="416" type="line"/>
      <point x="148" y="416" type="line"/>
    </contour>
    <contour>
      <point x="43" y="0" type="line"/>
      <point x="168" y="0" type="line"/>
      <point x="168" y="707" type="line"/>
      <point x="43" y="707" type="line"/>
    </contour>
    <contour>
      <point x="333" y="0" type="line"/>
      <point x="467" y="0" type="line"/>
      <point x="291" y="430" type="line"/>
      <point x="205" y="316" type="line"/>
    </contour>
    <contour>
      <point x="187" y="316" type="line"/>
      <point x="273" y="316" type="line"/>
      <point x="455" y="707" type="line"/>
      <point x="329" y="707" type="line"/>
      <point x="187" y="398" type="line"/>
    </contour>
  </outline>
</glyph>
<glyph name="Ucyr" format="2">
  <advance width="424"/>
  <unicode hex="0423"/>
  <guideline x="218" y="0" angle="90" name="h1"/>
  <anchor x="218" y="770" name="top"/>
  <outline>
    <contour>
      <point x="61" y="0" type="line"/>
      <point x="80" y="0" type="line" smooth="yes"/>
      <point x="165" y="0"/>
      <point x="225" y="65"/>
      <point x="267" y="203" type="curve" smooth="yes"/>
      <point x="419" y="707" type="line"/>
      <point x="280" y="707" type="line"/>
      <point x="199" y="314" type="line"/>
      <point x="187" y="313" type="line"/>
      <point x="151" y="206" type="line" smooth="yes"/>
      <point x="132" y="153"/>
      <point x="105" y="125"/>
      <point x="72" y="125" type="curve" smooth="yes"/>
      <point x="61" y="125" type="line"/>
    </contour>
    <contour>
      <point x="180" y="177" type="line"/>
      <point x="251" y="355" type="line"/>
      <point x="144" y="707" type="line"/>
      <point x="6" y="707" type="line"/>
    </contour>
  </outline>
</glyph>
<glyph name="Tsecyr" format="2">
  <advance width="537"/>
  <unicode hex="0426"/>
  <outline>
    <contour>
      <point x="333" y="0" type="line"/>
      <point x="459" y="0" type="line"/>
      <point x="459" y="707" type="line"/>
      <point x="333" y="707" type="line"/>
    </contour>
    <contour>
      <point x="147" y="0" type="line"/>
      <point x="347" y="0" type="line"/>
      <point x="347" y="114" type="line"/>
      <point x="147" y="114" type="line"/>
    </contour>
    <contour>
      <point x="43" y="0" type="line"/>
      <point x="169" y="0" type="line"/>
      <point x="169" y="707" type="line"/>
      <point x="43" y="707" type="line"/>
    </contour>
    <contour>
      <point x="157" y="0" type="line"/>
      <point x="401" y="0" type="line"/>
      <point x="401" y="-170" type="line"/>
      <point x="527" y="-170" type="line"/>
      <point x="527" y="114" type="line"/>
      <point x="157" y="114" type="line"/>
    </contour>
  </outline>
</glyph>
<glyph name="Shacyr" format="2">
  <advance width="806"/>
  <unicode hex="0428"/>
  <guideline x="44" y="0" angle="90"/>
  <guideline x="170" y="0" angle="90"/>
  <guideline x="340" y="0" angle="90"/>
  <guideline x="466" y="0" angle="90"/>
  <guideline x="636" y="0" angle="90"/>
  <guideline x="762" y="0" angle="90"/>
  <guideline x="0" y="707" angle="0"/>
  <anchor x="677" y="695" name="top"/>
  <outline>
    <component base="I" xOffset="-3"/>
    <component base="I" xOffset="293"/>
    <component base="I" xOffset="589"/>
    <contour>
      <point x="127" y="0" type="line"/>
      <point x="697" y="0" type="line"/>
      <point x="697" y="114" type="line"/>
      <point x="127" y="114" type="line"/>
    </contour>
  </outline>
</glyph>
<glyph name="Shchacyr" format="2">
  <advance width="885"/>
  <unicode hex="0429"/>
  <outline>
    <contour>
      <point x="44" y="0" type="line"/>
      <point x="170" y="0" type="line"/>
      <point x="170" y="707" type="line"/>
      <point x="44" y="707" type="line"/>
    </contour>
    <contour>
      <point x="340" y="0" type="line"/>
      <point x="466" y="0" type="line"/>
      <point x="466" y="707" type="line"/>
      <point x="340" y="707" type="line"/>
    </contour>
    <contour>
      <point x="636" y="0" type="line"/>
      <point x="762" y="0" type="line"/>
      <point x="762" y="707" type="line"/>
      <point x="636" y="707" type="line"/>
    </contour>
    <contour>
      <point x="127" y="0" type="line"/>
      <point x="697" y="0" type="line"/>
      <point x="697" y="114" type="line"/>
      <point x="127" y="114" type="line"/>
    </contour>
    <contour>
      <point x="504" y="0" type="line"/>
      <point x="748" y="0" type="line"/>
      <point x="748" y="-170" type="line"/>
      <point x="874" y="-170" type="line"/>
      <point x="874" y="114" type="line"/>
      <point x="504" y="114" type="line"/>
    </contour>
  </outline>
</glyph>
<glyph name="Hardcyr" format="2">
  <advance width="555"/>
  <unicode hex="042A"/>
  <outline>
    <contour>
      <point x="0" y="707" type="line"/>
      <point x="258" y="707" type="line"/>
      <point x="258" y="446" type="line"/>
      <point x="323" y="446" type="line" smooth="yes"/>
      <point x="457" y="446"/>
      <point x="517" y="377"/>
      <point x="517" y="223" type="curve" smooth="yes"/>
      <point x="517" y="67"/>
      <point x="458" y="0"/>
      <point x="323" y="0" type="curve" smooth="yes"/>
      <point x="133" y="0" type="line"/>
      <point x="133" y="593" type="line"/>
      <point x="0" y="593" type="line"/>
    </contour>
    <contour>
      <point x="319" y="332" type="curve" smooth="yes"/>
      <point x="258" y="332" type="line"/>
      <point x="258" y="113" type="line"/>
      <point x="319" y="113" type="line" smooth="yes"/>
      <point x="369" y="113"/>
      <point x="391" y="147"/>
      <point x="391" y="223" type="curve" smooth="yes"/>
      <point x="391" y="299"/>
      <point x="369" y="332"/>
    </contour>
  </outline>
</glyph>
<glyph name="Softcyr" format="2">
  <advance width="465"/>
  <unicode hex="042C"/>
  <guideline x="233" y="0" angle="90" name="h1"/>
  <guideline x="233" y="0" angle="90" name="h1"/>
  <anchor x="233" y="770" name="top"/>
  <outline>
    <contour>
      <point x="148" y="0" type="line"/>
      <point x="233" y="0" type="line" smooth="yes"/>
      <point x="368" y="0"/>
      <point x="427" y="67"/>
      <point x="427" y="223" type="curve" smooth="yes"/>
      <point x="427" y="377"/>
      <point x="367" y="446"/>
      <point x="233" y="446" type="curve" smooth="yes"/>
      <point x="148" y="446" type="line"/>
      <point x="148" y="332" type="line"/>
      <point x="229" y="332" type="line" smooth="yes"/>
      <point x="279" y="332"/>
      <point x="301" y="299"/>
      <point x="301" y="223" type="curve" smooth="yes"/>
      <point x="301" y="147"/>
      <point x="279" y="113"/>
      <point x="229" y="113" type="curve" smooth="yes"/>
      <point x="148" y="113" type="line"/>
    </contour>
    <contour>
      <point x="43" y="0" type="line"/>
      <point x="168" y="0" type="line"/>
      <point x="168" y="707" type="line"/>
      <point x="43" y="707" type="line"/>
    </contour>
  </outline>
</glyph>
<glyph name="Ereversedcyr" format="2">
  <advance width="479"/>
  <unicode hex="042D"/>
  <guideline x="245" y="0" angle="90" name="h1"/>
  <anchor x="245" y="770" name="top"/>
  <outline>
    <contour>
      <point x="173" y="416" type="line"/>
      <point x="314" y="416" type="line"/>
      <point x="314" y="493" type="line" smooth="yes"/>
      <point x="314" y="530"/>
      <point x="308" y="557"/>
      <point x="296" y="576" type="curve" smooth="yes"/>
      <point x="284" y="594"/>
      <point x="265" y="603"/>
      <point x="238" y="603" type="curve" smooth="yes"/>
      <point x="216" y="603"/>
      <point x="198" y="595"/>
      <point x="185" y="580" type="curve" smooth="yes"/>
      <point x="172" y="565"/>
      <point x="165" y="541"/>
      <point x="165" y="509" type="curve" smooth="yes"/>
      <point x="165" y="488" type="line"/>
      <point x="39" y="488" type="line"/>
      <point x="39" y="510" type="line" smooth="yes"/>
      <point x="39" y="579"/>
      <point x="57" y="631"/>
      <point x="93" y="666" type="curve" smooth="yes"/>
      <point x="129" y="700"/>
      <point x="176" y="717"/>
      <point x="235" y="717" type="curve" smooth="yes"/>
      <point x="296" y="717"/>
      <point x="346" y="700"/>
      <point x="383" y="665" type="curve" smooth="yes"/>
      <point x="421" y="630"/>
      <point x="440" y="580"/>
      <point x="440" y="513" type="curve" smooth="yes"/>
      <point x="440" y="195" type="line" smooth="yes"/>
      <point x="440" y="128"/>
      <point x="422" y="78"/>
      <point x="387" y="44" type="curve" smooth="yes"/>
      <point x="352" y="9"/>
      <point x="303" y="-8"/>
      <point x="242" y="-8" type="curve" smooth="yes"/>
      <point x="183" y="-8"/>
      <point x="134" y="9"/>
      <point x="96" y="44" type="curve" smooth="yes"/>
      <point x="59" y="79"/>
      <point x="40" y="130"/>
      <point x="40" y="198" type="curve" smooth="yes"/>
      <point x="40" y="217" type="line"/>
      <point x="165" y="217" type="line"/>
      <point x="165" y="199" type="line" smooth="yes"/>
      <point x="165" y="168"/>
      <point x="171" y="145"/>
      <point x="184" y="129" type="curve" smooth="yes"/>
      <point x="197" y="113"/>
      <point x="215" y="105"/>
      <point x="238" y="105" type="curve" smooth="yes"/>
      <point x="289" y="106"/>
      <point x="314" y="140"/>
      <point x="314" y="209" type="curve" smooth="yes"/>
      <point x="314" y="303" type="line"/>
      <point x="173" y="303" type="line"/>
    </contour>
  </outline>
</glyph>
<glyph name="Yucyr" format="2">
  <advance width="709"/>
  <unicode hex="042E"/>
  <guideline x="434" y="0" angle="90" name="h1"/>
  <anchor x="434" y="770" name="top"/>
  <outline>
    <component base="O" xOffset="230"/>
    <contour>
      <point x="43" y="707" type="line"/>
      <point x="169" y="707" type="line"/>
      <point x="169" y="416" type="line"/>
      <point x="322" y="416" type="line"/>
      <point x="322" y="303" type="line"/>
      <point x="169" y="303" type="line"/>
      <point x="169" y="0" type="line"/>
      <point x="43" y="0" type="line"/>
    </contour>
  </outline>
</glyph>
<glyph name="becyr" format="2">
  <advance width="420"/>
  <unicode hex="0431"/>
  <outline>
    <contour>
      <point x="211" y="-8" type="curve" smooth="yes"/>
      <point x="328" y="-8"/>
      <point x="382" y="54"/>
      <point x="382" y="187" type="curve" smooth="yes"/>
      <point x="382" y="353" type="line" smooth="yes"/>
      <point x="382" y="424"/>
      <point x="328" y="486"/>
      <point x="253" y="486" type="curve" smooth="yes"/>
      <point x="212" y="486"/>
      <point x="176" y="472"/>
      <point x="161" y="450" type="curve"/>
      <point x="39" y="450" type="line"/>
      <point x="39" y="187" type="line" smooth="yes"/>
      <point x="39" y="56"/>
      <point x="95" y="-8"/>
    </contour>
    <contour>
      <point x="210" y="98" type="curve" smooth="yes"/>
      <point x="176" y="98"/>
      <point x="158" y="128"/>
      <point x="158" y="186" type="curve" smooth="yes"/>
      <point x="158" y="291" type="line" smooth="yes"/>
      <point x="158" y="349"/>
      <point x="176" y="379"/>
      <point x="210" y="379" type="curve" smooth="yes"/>
      <point x="245" y="379"/>
      <point x="263" y="349"/>
      <point x="263" y="291" type="curve" smooth="yes"/>
      <point x="263" y="186" type="line" smooth="yes"/>
      <point x="263" y="128"/>
      <point x="245" y="98"/>
    </contour>
    <contour>
      <point x="39" y="380" type="line"/>
      <point x="158" y="380" type="line"/>
      <point x="158" y="440" type="line" smooth="yes"/>
      <point x="158" y="553"/>
      <point x="218" y="537"/>
      <point x="330" y="586" type="curve"/>
      <point x="330" y="707" type="line"/>
      <point x="171" y="635"/>
      <point x="39" y="680"/>
      <point x="39" y="420" type="curve" smooth="yes"/>
    </contour>
  </outline>
</glyph>
<glyph name="zecyr" format="2">
  <advance width="443"/>
  <unicode hex="0437"/>
  <outline>
    <contour>
      <point x="225" y="549" type="curve" smooth="yes"/>
      <point x="324" y="549"/>
      <point x="395" y="491"/>
      <point x="395" y="416" type="curve" smooth="yes"/>
      <point x="395" y="404" type="line" smooth="yes"/>
      <point x="395" y="357"/>
      <point x="370" y="318"/>
      <point x="332" y="305" type="curve"/>
      <point x="332" y="302" type="line"/>
      <point x="372" y="294"/>
      <point x="405" y="237"/>
      <point x="405" y="177" type="curve" smooth="yes"/>
      <point x="405" y="153" type="line" smooth="yes"/>
      <point x="405" y="60"/>
      <point x="328" y="-8"/>
      <point x="224" y="-8" type="curve" smooth="yes"/>
      <point x="124" y="-8"/>
      <point x="39" y="54"/>
      <point x="39" y="157" type="curve" smooth="yes"/>
      <point x="39" y="165" type="line"/>
      <point x="158" y="165" type="line"/>
      <point x="158" y="158" type="line" smooth="yes"/>
      <point x="158" y="121"/>
      <point x="186" y="98"/>
      <point x="226" y="98" type="curve" smooth="yes"/>
      <point x="262" y="98"/>
      <point x="286" y="126"/>
      <point x="286" y="160" type="curve" smooth="yes"/>
      <point x="286" y="170" type="line" smooth="yes"/>
      <point x="286" y="216"/>
      <point x="266" y="240"/>
      <point x="228" y="240" type="curve" smooth="yes"/>
      <point x="186" y="240" type="line"/>
      <point x="186" y="340" type="line"/>
      <point x="235" y="340" type="line" smooth="yes"/>
      <point x="261" y="340"/>
      <point x="276" y="358"/>
      <point x="276" y="388" type="curve" smooth="yes"/>
      <point x="276" y="401" type="line" smooth="yes"/>
      <point x="276" y="424"/>
      <point x="253" y="442"/>
      <point x="223" y="442" type="curve" smooth="yes"/>
      <point x="186" y="442"/>
      <point x="158" y="419"/>
      <point x="158" y="385" type="curve" smooth="yes"/>
      <point x="158" y="377" type="line"/>
      <point x="39" y="377" type="line"/>
      <point x="39" y="386" type="line" smooth="yes"/>
      <point x="39" y="487"/>
      <point x="117" y="549"/>
    </contour>
  </outline>
</glyph>
<glyph name="icyr" format="2">
  <advance width="435"/>
  <unicode hex="0438"/>
  <guideline x="213" y="0" angle="90" name="h1"/>
  <anchor x="213" y="604" name="top"/>
  <outline>
    <contour>
      <point x="274" y="0" type="line"/>
      <point x="393" y="0" type="line"/>
      <point x="393" y="541" type="line"/>
      <point x="291" y="541" type="line"/>
      <point x="286" y="501"/>
      <point x="274" y="251"/>
      <point x="274" y="211" type="curve" smooth="yes"/>
    </contour>
    <contour>
      <point x="42" y="0" type="line"/>
      <point x="144" y="0" type="line"/>
      <point x="154" y="40"/>
      <point x="161" y="290"/>
      <point x="161" y="330" type="curve" smooth="yes"/>
      <point x="161" y="541" type="line"/>
      <point x="42" y="541" type="line"/>
    </contour>
    <contour>
      <point x="117" y="0" type="line"/>
      <point x="171" y="0" type="line"/>
      <point x="251" y="211" type="line" smooth="yes"/>
      <point x="260" y="234"/>
      <point x="270" y="272"/>
      <point x="274" y="289" type="curve"/>
      <point x="318" y="289" type="line"/>
      <point x="318" y="541" type="line"/>
      <point x="264" y="541" type="line"/>
      <point x="184" y="330" type="line" smooth="yes"/>
      <point x="178" y="314"/>
      <point x="167" y="275"/>
      <point x="161" y="252" type="curve"/>
      <point x="117" y="252" type="line"/>
    </contour>
  </outline>
</glyph>
<glyph name="kacyr" format="2">
  <advance width="429"/>
  <unicode hex="043A"/>
  <guideline x="153" y="140" angle="56.941"/>
  <guideline x="196" y="229" angle="291.888"/>
  <guideline x="0" y="343" angle="0"/>
  <guideline x="0" y="258" angle="0"/>
  <guideline x="290" y="541" angle="239.545"/>
  <guideline x="419" y="0" angle="113.621"/>
  <guideline x="0" y="277" angle="0"/>
  <guideline x="290" y="541" angle="239.545"/>
  <guideline x="262" y="308" angle="56.8812"/>
  <guideline x="214" y="0" angle="90" name="h1"/>
  <anchor x="214" y="604" name="top"/>
  <outline>
    <contour>
      <point x="42" y="541" type="line"/>
      <point x="161" y="541" type="line"/>
      <point x="161" y="350" type="line"/>
      <point x="178" y="350" type="line"/>
      <point x="290" y="541" type="line"/>
      <point x="414" y="541" type="line"/>
      <point x="275" y="328" type="line"/>
      <point x="419" y="0" type="line"/>
      <point x="288" y="0" type="line"/>
      <point x="195" y="230" type="line"/>
      <point x="161" y="230" type="line"/>
      <point x="161" y="0" type="line"/>
      <point x="42" y="0" type="line"/>
    </contour>
  </outline>
</glyph>
<glyph name="elcyr" format="2">
  <advance width="449"/>
  <unicode hex="043B"/>
  <guideline x="101" y="541" angle="265.314"/>
  <guideline x="200" y="264" angle="85.8703"/>
  <outline>
    <contour>
      <point x="288" y="0" type="line"/>
      <point x="407" y="0" type="line"/>
      <point x="407" y="541" type="line"/>
      <point x="288" y="541" type="line"/>
    </contour>
    <contour>
      <point x="190" y="422" type="line"/>
      <point x="328" y="422" type="line"/>
      <point x="328" y="541" type="line"/>
      <point x="190" y="541" type="line"/>
    </contour>
    <contour>
      <point x="11" y="119" type="curve"/>
      <point x="11" y="0" type="line"/>
      <point x="117" y="0"/>
      <point x="185" y="50"/>
      <point x="191" y="134" type="curve" smooth="yes"/>
      <point x="220" y="541" type="line"/>
      <point x="101" y="541" type="line"/>
      <point x="72" y="191" type="line" smooth="yes"/>
      <point x="69" y="149"/>
      <point x="49" y="119"/>
    </contour>
  </outline>
</glyph>
<glyph name="emcyr" format="2">
  <advance width="589"/>
  <unicode hex="043C"/>
  <outline>
    <contour>
      <point x="42" y="0" type="line"/>
      <point x="161" y="0" type="line"/>
      <point x="161" y="211" type="line" smooth="yes"/>
      <point x="161" y="251"/>
      <point x="154" y="501"/>
      <point x="144" y="541" type="curve"/>
      <point x="42" y="541" type="line"/>
    </contour>
    <contour>
      <point x="318" y="252" type="line"/>
      <point x="274" y="252" type="line"/>
      <point x="268" y="275"/>
      <point x="257" y="314"/>
      <point x="251" y="330" type="curve" smooth="yes"/>
      <point x="171" y="541" type="line"/>
      <point x="117" y="541" type="line"/>
      <point x="117" y="289" type="line"/>
      <point x="161" y="289" type="line"/>
      <point x="165" y="272"/>
      <point x="175" y="234"/>
      <point x="184" y="211" type="curve" smooth="yes"/>
      <point x="264" y="0" type="line"/>
      <point x="318" y="0" type="line"/>
    </contour>
    <contour>
      <point x="270" y="0" type="line"/>
      <point x="324" y="0" type="line"/>
      <point x="404" y="211" type="line" smooth="yes"/>
      <point x="413" y="234"/>
      <point x="423" y="272"/>
      <point x="427" y="289" type="curve"/>
      <point x="471" y="289" type="line"/>
      <point x="471" y="541" type="line"/>
      <point x="417" y="541" type="line"/>
      <point x="337" y="330" type="line" smooth="yes"/>
      <point x="331" y="314"/>
      <point x="320" y="275"/>
      <point x="314" y="252" type="curve"/>
      <point x="270" y="252" type="line"/>
    </contour>
    <contour>
      <point x="427" y="0" type="line"/>
      <point x="546" y="0" type="line"/>
      <point x="546" y="541" type="line"/>
      <point x="444" y="541" type="line"/>
      <point x="439" y="501"/>
      <point x="427" y="251"/>
      <point x="427" y="211" type="curve" smooth="yes"/>
    </contour>
  </outline>
</glyph>
<glyph name="pecyr" format="2">
  <advance width="416"/>
  <unicode hex="043F"/>
  <outline>
    <contour>
      <point x="42" y="541" type="line"/>
      <point x="374" y="541" type="line"/>
      <point x="374" y="0" type="line"/>
      <point x="255" y="0" type="line"/>
      <point x="255" y="421" type="line"/>
      <point x="161" y="421" type="line"/>
      <point x="161" y="0" type="line"/>
      <point x="42" y="0" type="line"/>
    </contour>
  </outline>
</glyph>
<glyph name="tecyr" format="2">
  <advance width="336"/>
  <unicode hex="0442"/>
  <guideline x="178" y="0" angle="90" name="h1"/>
  <anchor x="168" y="604" name="top"/>
  <outline>
    <contour>
      <point x="4" y="541" type="line"/>
      <point x="332" y="541" type="line"/>
      <point x="332" y="422" type="line"/>
      <point x="228" y="422" type="line"/>
      <point x="228" y="0" type="line"/>
      <point x="109" y="0" type="line"/>
      <point x="109" y="422" type="line"/>
      <point x="4" y="422" type="line"/>
    </contour>
  </outline>
</glyph>
<glyph name="efcyr" format="2">
  <advance width="640"/>
  <unicode hex="0444"/>
  <outline>
    <contour>
      <point x="259" y="-162" type="line"/>
      <point x="382" y="-162" type="line"/>
      <point x="382" y="33" type="line"/>
      <point x="405" y="6"/>
      <point x="435" y="-8"/>
      <point x="471" y="-8" type="curve" smooth="yes"/>
      <point x="555" y="-8"/>
      <point x="602" y="55"/>
      <point x="602" y="167" type="curve" smooth="yes"/>
      <point x="602" y="374" type="line" smooth="yes"/>
      <point x="602" y="487"/>
      <point x="556" y="549"/>
      <point x="473" y="549" type="curve" smooth="yes"/>
      <point x="433" y="549"/>
      <point x="401" y="532"/>
      <point x="378" y="498" type="curve"/>
      <point x="378" y="707" type="line"/>
      <point x="263" y="707" type="line"/>
      <point x="263" y="498" type="line"/>
      <point x="240" y="532"/>
      <point x="208" y="549"/>
      <point x="168" y="549" type="curve" smooth="yes"/>
      <point x="85" y="549"/>
      <point x="39" y="487"/>
      <point x="39" y="374" type="curve" smooth="yes"/>
      <point x="39" y="167" type="line" smooth="yes"/>
      <point x="39" y="55"/>
      <point x="86" y="-8"/>
      <point x="170" y="-8" type="curve" smooth="yes"/>
      <point x="206" y="-8"/>
      <point x="236" y="6"/>
      <point x="259" y="33" type="curve"/>
    </contour>
    <contour>
      <point x="209" y="98" type="curve" smooth="yes"/>
      <point x="175" y="98"/>
      <point x="158" y="127"/>
      <point x="158" y="186" type="curve" smooth="yes"/>
      <point x="158" y="354" type="line" smooth="yes"/>
      <point x="158" y="413"/>
      <point x="175" y="442"/>
      <point x="209" y="442" type="curve" smooth="yes"/>
      <point x="243" y="442"/>
      <point x="261" y="412"/>
      <point x="261" y="354" type="curve" smooth="yes"/>
      <point x="261" y="186" type="line" smooth="yes"/>
      <point x="261" y="127"/>
      <point x="244" y="98"/>
    </contour>
    <contour>
      <point x="432" y="98" type="curve" smooth="yes"/>
      <point x="397" y="98"/>
      <point x="380" y="127"/>
      <point x="380" y="186" type="curve" smooth="yes"/>
      <point x="380" y="354" type="line" smooth="yes"/>
      <point x="380" y="412"/>
      <point x="398" y="442"/>
      <point x="432" y="442" type="curve" smooth="yes"/>
      <point x="466" y="442"/>
      <point x="483" y="413"/>
      <point x="483" y="354" type="curve" smooth="yes"/>
      <point x="483" y="186" type="line" smooth="yes"/>
      <point x="483" y="127"/>
      <point x="466" y="98"/>
    </contour>
  </outline>
</glyph>
<glyph name="checyr" format="2">
  <advance width="420"/>
  <unicode hex="0447"/>
  <outline>
    <contour>
      <point x="42" y="541" type="line"/>
      <point x="161" y="541" type="line"/>
      <point x="161" y="345" type="line" smooth="yes"/>
      <point x="161" y="315"/>
      <point x="164" y="275"/>
      <point x="210" y="275" type="curve" smooth="yes"/>
      <point x="224" y="275"/>
      <point x="247" y="278"/>
      <point x="259" y="285" type="curve"/>
      <point x="259" y="541" type="line"/>
      <point x="378" y="541" type="line"/>
      <point x="378" y="0" type="line"/>
      <point x="259" y="0" type="line"/>
      <point x="259" y="179" type="line"/>
      <point x="231" y="172"/>
      <point x="200" y="169"/>
      <point x="175" y="169" type="curve" smooth="yes"/>
      <point x="73" y="169"/>
      <point x="42" y="237"/>
      <point x="42" y="317" type="curve" smooth="yes"/>
    </contour>
  </outline>
</glyph>
<glyph name="shacyr" format="2">
  <advance width="615"/>
  <unicode hex="0448"/>
  <outline>
    <contour>
      <point x="42" y="541" type="line"/>
      <point x="161" y="541" type="line"/>
      <point x="161" y="120" type="line"/>
      <point x="248" y="120" type="line"/>
      <point x="248" y="541" type="line"/>
      <point x="367" y="541" type="line"/>
      <point x="367" y="120" type="line"/>
      <point x="454" y="120" type="line"/>
      <point x="454" y="541" type="line"/>
      <point x="573" y="541" type="line"/>
      <point x="573" y="0" type="line"/>
      <point x="42" y="0" type="line"/>
    </contour>
  </outline>
</glyph>
<glyph name="shchacyr" format="2">
  <advance width="651"/>
  <unicode hex="0449"/>
  <outline>
    <contour>
      <point x="42" y="541" type="line"/>
      <point x="161" y="541" type="line"/>
      <point x="161" y="120" type="line"/>
      <point x="248" y="120" type="line"/>
      <point x="248" y="541" type="line"/>
      <point x="367" y="541" type="line"/>
      <point x="367" y="120" type="line"/>
      <point x="454" y="120" type="line"/>
      <point x="454" y="541" type="line"/>
      <point x="573" y="541" type="line"/>
      <point x="573" y="119" type="line"/>
      <point x="641" y="119" type="line"/>
      <point x="641" y="-170" type="line"/>
      <point x="522" y="-170" type="line"/>
      <point x="522" y="0" type="line"/>
      <point x="42" y="0" type="line"/>
    </contour>
  </outline>
</glyph>
<glyph name="softcyr" format="2">
  <advance width="416"/>
  <unicode hex="044C"/>
  <outline>
    <contour>
      <point x="42" y="541" type="line"/>
      <point x="161" y="541" type="line"/>
      <point x="161" y="350" type="line"/>
      <point x="223" y="350" type="line" smooth="yes"/>
      <point x="338" y="350"/>
      <point x="378" y="269"/>
      <point x="378" y="169" type="curve" smooth="yes"/>
      <point x="378" y="76"/>
      <point x="317" y="0"/>
      <point x="244" y="0" type="curve" smooth="yes"/>
      <point x="42" y="0" type="line"/>
    </contour>
    <contour>
      <point x="210" y="230" type="curve" smooth="yes"/>
      <point x="161" y="230" type="line"/>
      <point x="161" y="120" type="line"/>
      <point x="210" y="120" type="line" smooth="yes"/>
      <point x="243" y="120"/>
      <point x="259" y="136"/>
      <point x="259" y="170" type="curve" smooth="yes"/>
      <point x="259" y="204"/>
      <point x="245" y="230"/>
    </contour>
  </outline>
</glyph>
<glyph name="ereversedcyr" format="2">
  <advance width="415"/>
  <unicode hex="044D"/>
  <guideline x="210" y="0" angle="90" name="h1"/>
  <anchor x="210" y="604" name="top"/>
  <outline>
    <contour>
      <point x="201" y="350" type="line"/>
      <point x="258" y="350" type="line"/>
      <point x="258" y="354" type="line" smooth="yes"/>
      <point x="258" y="385"/>
      <point x="254" y="407"/>
      <point x="245" y="421" type="curve" smooth="yes"/>
      <point x="236" y="435"/>
      <point x="223" y="442"/>
      <point x="205" y="442" type="curve" smooth="yes"/>
      <point x="188" y="442"/>
      <point x="175" y="436"/>
      <point x="166" y="425" type="curve" smooth="yes"/>
      <point x="157" y="413"/>
      <point x="153" y="395"/>
      <point x="153" y="371" type="curve" smooth="yes"/>
      <point x="153" y="352" type="line"/>
      <point x="38" y="352" type="line"/>
      <point x="38" y="373" type="line" smooth="yes"/>
      <point x="38" y="432"/>
      <point x="52" y="476"/>
      <point x="81" y="505" type="curve" smooth="yes"/>
      <point x="110" y="534"/>
      <point x="151" y="549"/>
      <point x="205" y="549" type="curve" smooth="yes"/>
      <point x="261" y="549"/>
      <point x="304" y="534"/>
      <point x="333" y="503" type="curve" smooth="yes"/>
      <point x="362" y="472"/>
      <point x="377" y="422"/>
      <point x="377" y="353" type="curve" smooth="yes"/>
      <point x="377" y="187" type="line" smooth="yes"/>
      <point x="377" y="118"/>
      <point x="362" y="69"/>
      <point x="333" y="38" type="curve" smooth="yes"/>
      <point x="304" y="7"/>
      <point x="261" y="-8"/>
      <point x="205" y="-8" type="curve" smooth="yes"/>
      <point x="151" y="-8"/>
      <point x="110" y="7"/>
      <point x="81" y="37" type="curve" smooth="yes"/>
      <point x="52" y="66"/>
      <point x="38" y="111"/>
      <point x="38" y="171" type="curve" smooth="yes"/>
      <point x="38" y="188" type="line"/>
      <point x="153" y="188" type="line"/>
      <point x="153" y="171" type="line" smooth="yes"/>
      <point x="153" y="146"/>
      <point x="157" y="128"/>
      <point x="166" y="116" type="curve" smooth="yes"/>
      <point x="175" y="104"/>
      <point x="189" y="98"/>
      <point x="206" y="98" type="curve" smooth="yes"/>
      <point x="223" y="98"/>
      <point x="236" y="105"/>
      <point x="245" y="119" type="curve" smooth="yes"/>
      <point x="254" y="133"/>
      <point x="258" y="155"/>
      <point x="258" y="186" type="curve" smooth="yes"/>
      <point x="258" y="230" type="line"/>
      <point x="201" y="230" type="line"/>
    </contour>
  </outline>
</glyph>
<glyph name="yacyr" format="2">
  <advance width="438"/>
  <unicode hex="044F"/>
  <guideline x="244" y="0" angle="90" name="h1"/>
  <anchor x="244" y="604" name="top"/>
  <outline>
    <contour>
      <point x="224" y="541" type="curve" smooth="yes"/>
      <point x="396" y="541" type="line"/>
      <point x="396" y="0" type="line"/>
      <point x="277" y="0" type="line"/>
      <point x="277" y="150" type="line"/>
      <point x="215" y="150" type="line"/>
      <point x="161" y="0" type="line"/>
      <point x="41" y="0" type="line"/>
      <point x="113" y="189" type="line"/>
      <point x="72" y="224"/>
      <point x="50" y="277"/>
      <point x="50" y="345" type="curve" smooth="yes"/>
      <point x="50" y="435"/>
      <point x="98" y="541"/>
    </contour>
    <contour>
      <point x="238" y="270" type="curve" smooth="yes"/>
      <point x="277" y="270" type="line"/>
      <point x="277" y="422" type="line"/>
      <point x="238" y="422" type="line" smooth="yes"/>
      <point x="202" y="422"/>
      <point x="169" y="392"/>
      <point x="169" y="346" type="curve" smooth="yes"/>
      <point x="169" y="301"/>
      <point x="202" y="270"/>
    </contour>
  </outline>
</glyph>
<glyph name="eukrcyr" format="2">
  <advance width="416"/>
  <unicode hex="0454"/>
  <outline>
    <contour>
      <point x="263" y="188" type="line"/>
      <point x="263" y="171" type="line" smooth="yes"/>
      <point x="263" y="122"/>
      <point x="245" y="98"/>
      <point x="210" y="98" type="curve" smooth="yes"/>
      <point x="176" y="98"/>
      <point x="158" y="128"/>
      <point x="158" y="186" type="curve" smooth="yes"/>
      <point x="158" y="354" type="line" smooth="yes"/>
      <point x="158" y="412"/>
      <point x="176" y="442"/>
      <point x="211" y="442" type="curve" smooth="yes"/>
      <point x="246" y="442"/>
      <point x="263" y="418"/>
      <point x="263" y="371" type="curve" smooth="yes"/>
      <point x="263" y="352" type="line"/>
      <point x="378" y="352" type="line"/>
      <point x="378" y="373" type="line" smooth="yes"/>
      <point x="378" y="489"/>
      <point x="321" y="549"/>
      <point x="211" y="549" type="curve" smooth="yes"/>
      <point x="94" y="549"/>
      <point x="39" y="486"/>
      <point x="39" y="353" type="curve" smooth="yes"/>
      <point x="39" y="187" type="line" smooth="yes"/>
      <point x="39" y="56"/>
      <point x="95" y="-8"/>
      <point x="211" y="-8" type="curve" smooth="yes"/>
      <point x="321" y="-8"/>
      <point x="378" y="53"/>
      <point x="378" y="171" type="curve" smooth="yes"/>
      <point x="378" y="188" type="line"/>
    </contour>
    <contour>
      <point x="215" y="350" type="line"/>
      <point x="137" y="350" type="line"/>
      <point x="137" y="230" type="line"/>
      <point x="215" y="230" type="line"/>
    </contour>
  </outline>
</glyph>
<glyph name="dzhecyr" format="2">
  <advance width="420"/>
  <unicode hex="045F"/>
  <outline>
    <contour>
      <point x="259" y="0" type="line"/>
      <point x="378" y="0" type="line"/>
      <point x="378" y="541" type="line"/>
      <point x="259" y="541" type="line"/>
    </contour>
    <contour>
      <point x="42" y="0" type="line"/>
      <point x="161" y="0" type="line"/>
      <point x="161" y="541" type="line"/>
      <point x="42" y="541" type="line"/>
    </contour>
    <contour>
      <point x="141" y="0" type="line"/>
      <point x="279" y="0" type="line"/>
      <point x="279" y="119" type="line"/>
      <point x="141" y="119" type="line"/>
    </contour>
    <contour>
      <point x="150" y="-170" type="line"/>
      <point x="269" y="-170" type="line"/>
      <point x="269" y="119" type="line"/>
      <point x="150" y="119" type="line"/>
    </contour>
  </outline>
</glyph>
<glyph name="Germandbls" format="2">
  <advance width="580"/>
  <unicode hex="1E9E"/>
  <outline>
    <contour>
      <point x="0" y="1" type="line"/>
      <point x="0" y="479" type="line" smooth="yes"/>
      <point x="0" y="595"/>
      <point x="48" y="647" type="qcurve" smooth="yes"/>
      <point x="112" y="715"/>
      <point x="220" y="714" type="qcurve" smooth="yes"/>
      <point x="276" y="714"/>
      <point x="340" y="683" type="qcurve" smooth="yes"/>
      <point x="400" y="653"/>
      <point x="434" y="592" type="qcurve" smooth="yes"/>
      <point x="441" y="581" type="line"/>
      <point x="328" y="418" type="line"/>
      <point x="393" y="407"/>
      <point x="436" y="369" type="qcurve" smooth="yes"/>
      <point x="503" y="310"/>
      <point x="503" y="210" type="qcurve" smooth="yes"/>
      <point x="503" y="176"/>
      <point x="498" y="150" type="qcurve" smooth="yes"/>
      <point x="493" y="123"/>
      <point x="481" y="99" type="qcurve" smooth="yes"/>
      <point x="476" y="90"/>
      <point x="466" y="75"/>
      <point x="453" y="60"/>
      <point x="446" y="53" type="qcurve" smooth="yes"/>
      <point x="414" y="23"/>
      <point x="376" y="10" type="qcurve" smooth="yes"/>
      <point x="352" y="3"/>
      <point x="301" y="-3"/>
      <point x="269" y="-3" type="qcurve" smooth="yes"/>
      <point x="175" y="-3" type="line"/>
      <point x="175" y="114" type="line"/>
      <point x="283" y="114" type="line" smooth="yes"/>
      <point x="291" y="114"/>
      <point x="307" y="115"/>
      <point x="319" y="116"/>
      <point x="323" y="117" type="qcurve" smooth="yes"/>
      <point x="333" y="119"/>
      <point x="344" y="127" type="qcurve" smooth="yes"/>
      <point x="346" y="128" type="line"/>
      <point x="347" y="129" type="line" smooth="yes"/>
      <point x="365" y="139"/>
      <point x="375" y="159" type="qcurve" smooth="yes"/>
      <point x="384" y="179"/>
      <point x="384" y="210" type="qcurve" smooth="yes"/>
      <point x="384" y="236"/>
      <point x="376" y="255" type="qcurve" smooth="yes"/>
      <point x="367" y="274"/>
      <point x="353" y="284" type="qcurve" smooth="yes"/>
      <point x="339" y="294"/>
      <point x="321" y="300" type="qcurve" smooth="yes"/>
      <point x="311" y="302"/>
      <point x="292" y="305"/>
      <point x="280" y="305" type="qcurve" smooth="yes"/>
      <point x="177" y="305" type="line"/>
      <point x="177" y="402" type="line"/>
      <point x="303" y="580" type="line"/>
      <point x="302" y="624"/>
      <point x="200" y="622" type="qcurve" smooth="yes"/>
      <point x="119" y="620"/>
      <point x="119" y="481" type="qcurve" smooth="yes"/>
      <point x="119" y="1" type="line"/>
    </contour>
  </outline>
</glyph>
<glyph name="quotedblleft" format="2">
  <advance width="359"/>
  <unicode hex="201C"/>
  <outline>
    <contour>
      <point x="145" y="444" type="line"/>
      <point x="30" y="444" type="line"/>
      <point x="30" y="651" type="line"/>
      <point x="145" y="744" type="line"/>
    </contour>
    <contour>
      <point x="330" y="444" type="line"/>
      <point x="214" y="444" type="line"/>
      <point x="214" y="651" type="line"/>
      <point x="330" y="744" type="line"/>
    </contour>
  </outline>
</glyph>
<glyph name="guilsinglleft" format="2">
  <advance width="254"/>
  <unicode hex="2039"/>
  <outline>
    <contour>
      <point x="14" y="270" type="line"/>
      <point x="213" y="473" type="line"/>
      <point x="213" y="360" type="line"/>
      <point x="125" y="270" type="line"/>
      <point x="213" y="180" type="line"/>
      <point x="213" y="68" type="line"/>
    </contour>
  </outline>
</glyph>
<glyph name="minus" format="2">
  <advance width="402"/>
  <unicode hex="2212"/>
  <outline>
    <contour>
      <point x="39" y="411" type="line"/>
      <point x="321" y="411" type="line"/>
      <point x="321" y="298" type="line"/>
      <point x="39" y="298" type="line"/>
    </contour>
  </outline>
</glyph>
<glyph name="dottedcircle" format="2">
  <advance width="556"/>
  <unicode hex="25CC"/>
  <anchor x="278" y="0" name="bottom"/>
  <anchor x="278" y="519" name="top"/>
  <outline>
    <contour>
      <point x="278" y="432" type="curve" smooth="yes"/>
      <point x="263" y="432"/>
      <point x="251" y="444"/>
      <point x="251" y="459" type="curve" smooth="yes"/>
      <point x="251" y="474"/>
      <point x="263" y="486"/>
      <point x="278" y="486" type="curve" smooth="yes"/>
      <point x="292" y="486"/>
      <point x="305" y="474"/>
      <point x="305" y="459" type="curve" smooth="yes"/>
      <point x="305" y="444"/>
      <point x="292" y="432"/>
    </contour>
    <contour>
      <point x="173" y="404" type="curve" smooth="yes"/>
      <point x="159" y="404"/>
      <point x="147" y="416"/>
      <point x="147" y="431" type="curve" smooth="yes"/>
      <point x="147" y="445"/>
      <point x="159" y="457"/>
      <point x="173" y="457" type="curve" smooth="yes"/>
      <point x="188" y="457"/>
      <point x="200" y="445"/>
      <point x="200" y="431" type="curve" smooth="yes"/>
      <point x="200" y="416"/>
      <point x="188" y="404"/>
    </contour>
    <contour>
      <point x="382" y="404" type="curve" smooth="yes"/>
      <point x="368" y="404"/>
      <point x="356" y="416"/>
      <point x="356" y="431" type="curve" smooth="yes"/>
      <point x="356" y="445"/>
      <point x="368" y="457"/>
      <point x="382" y="457" type="curve" smooth="yes"/>
      <point x="397" y="457"/>
      <point x="409" y="445"/>
      <point x="409" y="431" type="curve" smooth="yes"/>
      <point x="409" y="416"/>
      <point x="397" y="404"/>
    </contour>
    <contour>
      <point x="103" y="328" type="curve" smooth="yes"/>
      <point x="88" y="328"/>
      <point x="76" y="340"/>
      <point x="76" y="355" type="curve" smooth="yes"/>
      <point x="76" y="369"/>
      <point x="88" y="381"/>
      <point x="103" y="381" type="curve" smooth="yes"/>
      <point x="118" y="381"/>
      <point x="130" y="369"/>
      <point x="130" y="355" type="curve" smooth="yes"/>
      <point x="130" y="340"/>
      <point x="118" y="328"/>
    </contour>
    <contour>
      <point x="453" y="328" type="curve" smooth="yes"/>
      <point x="438" y="328"/>
      <point x="426" y="340"/>
      <point x="426" y="355" type="curve" smooth="yes"/>
      <point x="426" y="369"/>
      <point x="438" y="381"/>
      <point x="453" y="381" type="curve" smooth="yes"/>
      <point x="467" y="381"/>
      <point x="480" y="369"/>
      <point x="480" y="355" type="curve" smooth="yes"/>
      <point x="480" y="340"/>
      <point x="467" y="328"/>
    </contour>
    <contour>
      <point x="78" y="232" type="curve" smooth="yes"/>
      <point x="63" y="232"/>
      <point x="51" y="244"/>
      <point x="51" y="259" type="curve" smooth="yes"/>
      <point x="51" y="274"/>
      <point x="63" y="286"/>
      <point x="78" y="286" type="curve" smooth="yes"/>
      <point x="92" y="286"/>
      <point x="105" y="274"/>
      <point x="105" y="259" type="curve" smooth="yes"/>
      <point x="105" y="244"/>
      <point x="92" y="232"/>
    </contour>
    <contour>
      <point x="478" y="232" type="curve" smooth="yes"/>
      <point x="463" y="232"/>
      <point x="451" y="244"/>
      <point x="451" y="259" type="curve" smooth="yes"/>
      <point x="451" y="274"/>
      <point x="463" y="286"/>
      <point x="478" y="286" type="curve" smooth="yes"/>
      <point x="493" y="286"/>
      <point x="505" y="274"/>
      <point x="505" y="259" type="curve" smooth="yes"/>
      <point x="505" y="244"/>
      <point x="493" y="232"/>
    </contour>
    <contour>
      <point x="103" y="137" type="curve" smooth="yes"/>
      <point x="88" y="137"/>
      <point x="76" y="149"/>
      <point x="76" y="163" type="curve" smooth="yes"/>
      <point x="76" y="178"/>
      <point x="88" y="190"/>
      <point x="103" y="190" type="curve" smooth="yes"/>
      <point x="118" y="190"/>
      <point x="130" y="178"/>
      <point x="130" y="163" type="curve" smooth="yes"/>
      <point x="130" y="149"/>
      <point x="118" y="137"/>
    </contour>
    <contour>
      <point x="453" y="137" type="curve" smooth="yes"/>
      <point x="438" y="137"/>
      <point x="426" y="149"/>
      <point x="426" y="163" type="curve" smooth="yes"/>
      <point x="426" y="178"/>
      <point x="438" y="190"/>
      <point x="453" y="190" type="curve" smooth="yes"/>
      <point x="467" y="190"/>
      <point x="480" y="178"/>
      <point x="480" y="163" type="curve" smooth="yes"/>
      <point x="480" y="149"/>
      <point x="467" y="137"/>
    </contour>
    <contour>
      <point x="173" y="61" type="curve" smooth="yes"/>
      <point x="159" y="61"/>
      <point x="147" y="73"/>
      <point x="147" y="87" type="curve" smooth="yes"/>
      <point x="147" y="102"/>
      <point x="159" y="114"/>
      <point x="173" y="114" type="curve" smooth="yes"/>
      <point x="188" y="114"/>
      <point x="200" y="102"/>
      <point x="200" y="87" type="curve" smooth="yes"/>
      <point x="200" y="73"/>
      <point x="188" y="61"/>
    </contour>
    <contour>
      <point x="382" y="61" type="curve" smooth="yes"/>
      <point x="368" y="61"/>
      <point x="356" y="73"/>
      <point x="356" y="87" type="curve" smooth="yes"/>
      <point x="356" y="102"/>
      <point x="368" y="114"/>
      <point x="382" y="114" type="curve" smooth="yes"/>
      <point x="397" y="114"/>
      <point x="409" y="102"/>
      <point x="409" y="87" type="curve" smooth="yes"/>
      <point x="409" y="73"/>
      <point x="397" y="61"/>
    </contour>
    <contour>
      <point x="278" y="32" type="curve" smooth="yes"/>
      <point x="263" y="32"/>
      <point x="251" y="44"/>
      <point x="251" y="59" type="curve" smooth="yes"/>
      <point x="251" y="74"/>
      <point x="263" y="86"/>
      <point x="278" y="86" type="curve" smooth="yes"/>
      <point x="292" y="86"/>
      <point x="305" y="74"/>
      <point x="305" y="59" type="curve" smooth="yes"/>
      <point x="305" y="44"/>
      <point x="292" y="32"/>
    </contour>
  </outline>
</glyph>
<glyph name="Elcyr.loclBGR" format="2">
  <advance width="496"/>
  <outline>
    <contour>
      <point x="187" y="707" type="line"/>
      <point x="310" y="707" type="line"/>
      <point x="490" y="0" type="line"/>
      <point x="359" y="0" type="line"/>
      <point x="249" y="537" type="line"/>
      <point x="137" y="0" type="line"/>
      <point x="6" y="0" type="line"/>
    </contour>
  </outline>
</glyph>
<glyph name="eight.dnom" format="2">
  <advance width="268"/>
  <outline>
    <contour>
      <point x="256" y="289" type="line" smooth="yes"/>
      <point x="256" y="246"/>
      <point x="225" y="220" type="qcurve"/>
      <point x="256" y="193"/>
      <point x="256" y="143" type="qcurve" smooth="yes"/>
      <point x="256" y="100" type="line" smooth="yes"/>
      <point x="256" y="44"/>
      <point x="224" y="13" type="qcurve" smooth="yes"/>
      <point x="192" y="-17"/>
      <point x="134" y="-17" type="qcurve" smooth="yes"/>
      <point x="76" y="-17"/>
      <point x="44" y="13" type="qcurve" smooth="yes"/>
      <point x="12" y="43"/>
      <point x="13" y="100" type="qcurve" smooth="yes"/>
      <point x="13" y="143" type="line" smooth="yes"/>
      <point x="13" y="192"/>
      <point x="43" y="219" type="qcurve"/>
      <point x="13" y="245"/>
      <point x="13" y="289" type="qcurve" smooth="yes"/>
      <point x="13" y="329" type="line" smooth="yes"/>
      <point x="13" y="378"/>
      <point x="46" y="408" type="qcurve" smooth="yes"/>
      <point x="79" y="437"/>
      <point x="135" y="437" type="qcurve" smooth="yes"/>
      <point x="190" y="437"/>
      <point x="223" y="408" type="qcurve" smooth="yes"/>
      <point x="256" y="379"/>
      <point x="256" y="329" type="qcurve" smooth="yes"/>
    </contour>
    <contour>
      <point x="150" y="328" type="line" smooth="yes"/>
      <point x="150" y="348"/>
      <point x="134" y="348" type="qcurve" smooth="yes"/>
      <point x="118" y="348"/>
      <point x="118" y="328" type="qcurve" smooth="yes"/>
      <point x="118" y="286" type="line" smooth="yes"/>
      <point x="118" y="271"/>
      <point x="122" y="266" type="qcurve" smooth="yes"/>
      <point x="125" y="261"/>
      <point x="135" y="261" type="qcurve" smooth="yes"/>
      <point x="144" y="261"/>
      <point x="147" y="266" type="qcurve" smooth="yes"/>
      <point x="150" y="271"/>
      <point x="150" y="286" type="qcurve" smooth="yes"/>
    </contour>
    <contour>
      <point x="150" y="148" type="line" smooth="yes"/>
      <point x="150" y="172"/>
      <point x="134" y="173" type="qcurve" smooth="yes"/>
      <point x="125" y="173"/>
      <point x="122" y="168" type="qcurve" smooth="yes"/>
      <point x="119" y="162"/>
      <point x="118" y="148" type="qcurve" smooth="yes"/>
      <point x="118" y="99" type="line" smooth="yes"/>
      <point x="118" y="82"/>
      <point x="122" y="77" type="qcurve" smooth="yes"/>
      <point x="125" y="71"/>
      <point x="135" y="71" type="qcurve" smooth="yes"/>
      <point x="145" y="71"/>
      <point x="147" y="77" type="qcurve" smooth="yes"/>
      <point x="150" y="83"/>
      <point x="150" y="99" type="qcurve" smooth="yes"/>
    </contour>
  </outline>
</glyph>
<glyph name="elcyr.loclBGR" format="2">
  <advance width="418"/>
  <outline>
    <contour>
      <point x="273" y="541" type="line"/>
      <point x="147" y="541" type="line"/>
      <point x="11" y="0" type="line"/>
      <point x="143" y="0" type="line"/>
      <point x="209" y="352" type="line"/>
      <point x="277" y="0" type="line"/>
      <point x="408" y="0" type="line"/>
    </contour>
  </outline>
</glyph>
<glyph name="five.dnom" format="2">
  <advance width="265"/>
  <outline>
    <contour>
      <point x="155" y="285" type="qcurve" smooth="yes"/>
      <point x="254" y="285"/>
      <point x="253" y="176" type="qcurve" smooth="yes"/>
      <point x="253" y="98" type="line" smooth="yes"/>
      <point x="253" y="42"/>
      <point x="222" y="12" type="qcurve" smooth="yes"/>
      <point x="191" y="-17"/>
      <point x="133" y="-17" type="qcurve" smooth="yes"/>
      <point x="75" y="-17"/>
      <point x="44" y="12" type="qcurve" smooth="yes"/>
      <point x="13" y="41"/>
      <point x="13" y="96" type="qcurve" smooth="yes"/>
      <point x="13" y="116" type="line"/>
      <point x="13" y="127" type="line"/>
      <point x="116" y="127" type="line"/>
      <point x="116" y="116" type="line"/>
      <point x="116" y="99" type="line" smooth="yes"/>
      <point x="116" y="82"/>
      <point x="120" y="77" type="qcurve" smooth="yes"/>
      <point x="124" y="72"/>
      <point x="132" y="72" type="qcurve" smooth="yes"/>
      <point x="141" y="72"/>
      <point x="145" y="77" type="qcurve" smooth="yes"/>
      <point x="149" y="82"/>
      <point x="148" y="99" type="qcurve" smooth="yes"/>
      <point x="148" y="173" type="line" smooth="yes"/>
      <point x="148" y="197"/>
      <point x="132" y="197" type="qcurve" smooth="yes"/>
      <point x="121" y="197"/>
      <point x="115" y="183" type="qcurve" smooth="yes"/>
      <point x="112" y="176" type="line"/>
      <point x="18" y="176" type="line"/>
      <point x="18" y="431" type="line"/>
      <point x="253" y="431" type="line"/>
      <point x="253" y="340" type="line"/>
      <point x="116" y="340" type="line"/>
      <point x="116" y="278" type="line"/>
      <point x="133" y="285"/>
    </contour>
  </outline>
</glyph>
<glyph name="four.dnom" format="2">
  <advance width="279"/>
  <outline>
    <contour>
      <point x="246" y="148" type="line"/>
      <point x="262" y="148" type="line"/>
      <point x="275" y="148" type="line"/>
      <point x="275" y="59" type="line"/>
      <point x="262" y="59" type="line"/>
      <point x="246" y="59" type="line"/>
      <point x="246" y="-11" type="line"/>
      <point x="141" y="-11" type="line"/>
      <point x="141" y="59" type="line"/>
      <point x="6" y="59" type="line"/>
      <point x="6" y="139" type="line"/>
      <point x="98" y="431" type="line"/>
      <point x="204" y="431" type="line"/>
      <point x="144" y="241" type="line"/>
      <point x="246" y="241" type="line"/>
    </contour>
    <contour>
      <point x="141" y="148" type="line"/>
      <point x="141" y="233" type="line"/>
      <point x="141" y="232"/>
      <point x="115" y="148" type="qcurve"/>
    </contour>
  </outline>
</glyph>
<glyph name="hardcyr.loclBGR" format="2">
  <advance width="486"/>
  <outline>
    <contour>
      <point x="298" y="260" type="curve" smooth="yes"/>
      <point x="276" y="260"/>
      <point x="253" y="259"/>
      <point x="231" y="255" type="curve"/>
      <point x="231" y="186" type="line"/>
      <point x="231" y="125"/>
      <point x="251" y="98"/>
      <point x="295" y="98" type="curve" smooth="yes"/>
      <point x="350" y="98"/>
      <point x="369" y="135"/>
      <point x="369" y="190" type="curve" smooth="yes"/>
      <point x="369" y="224"/>
      <point x="341" y="260"/>
    </contour>
    <contour>
      <point x="0" y="541" type="line"/>
      <point x="231" y="541" type="line"/>
      <point x="231" y="374" type="line"/>
      <point x="255" y="379"/>
      <point x="280" y="380"/>
      <point x="303" y="380" type="curve" smooth="yes"/>
      <point x="433" y="380"/>
      <point x="488" y="289"/>
      <point x="488" y="189" type="curve" smooth="yes"/>
      <point x="488" y="64"/>
      <point x="420" y="-8"/>
      <point x="302" y="-8" type="curve" smooth="yes"/>
      <point x="161" y="-8"/>
      <point x="112" y="62"/>
      <point x="112" y="186" type="curve"/>
      <point x="112" y="422" type="line"/>
      <point x="0" y="422" type="line"/>
    </contour>
  </outline>
</glyph>
<glyph name="kacyr.loclBGR" format="2">
  <advance width="429"/>
  <outline>
    <contour>
      <point x="42" y="707" type="line"/>
      <point x="161" y="707" type="line"/>
      <point x="161" y="350" type="line"/>
      <point x="178" y="350" type="line"/>
      <point x="290" y="541" type="line"/>
      <point x="414" y="541" type="line"/>
      <point x="275" y="328" type="line"/>
      <point x="419" y="0" type="line"/>
      <point x="288" y="0" type="line"/>
      <point x="195" y="230" type="line"/>
      <point x="161" y="230" type="line"/>
      <point x="161" y="0" type="line"/>
      <point x="42" y="0" type="line"/>
    </contour>
  </outline>
</glyph>
<glyph name="nine.dnom" format="2">
  <advance width="261"/>
  <outline>
    <contour>
      <point x="106" y="148" type="qcurve" smooth="yes"/>
      <point x="61" y="148"/>
      <point x="36" y="176" type="qcurve" smooth="yes"/>
      <point x="10" y="204"/>
      <point x="10" y="252" type="qcurve" smooth="yes"/>
      <point x="10" y="326" type="line" smooth="yes"/>
      <point x="10" y="378"/>
      <point x="42" y="407" type="qcurve" smooth="yes"/>
      <point x="74" y="437"/>
      <point x="132" y="437" type="qcurve" smooth="yes"/>
      <point x="190" y="437"/>
      <point x="221" y="407" type="qcurve" smooth="yes"/>
      <point x="252" y="377"/>
      <point x="252" y="323" type="qcurve" smooth="yes"/>
      <point x="252" y="260" type="line" smooth="yes"/>
      <point x="252" y="212"/>
      <point x="229" y="163" type="qcurve" smooth="yes"/>
      <point x="145" y="-11" type="line"/>
      <point x="36" y="-11" type="line"/>
      <point x="111" y="148" type="line"/>
      <point x="108" y="148"/>
    </contour>
    <contour>
      <point x="115" y="257" type="line" smooth="yes"/>
      <point x="115" y="236"/>
      <point x="131" y="236" type="qcurve" smooth="yes"/>
      <point x="147" y="236"/>
      <point x="147" y="254" type="qcurve" smooth="yes"/>
      <point x="147" y="326" type="line" smooth="yes"/>
      <point x="147" y="347"/>
      <point x="131" y="347" type="qcurve" smooth="yes"/>
      <point x="115" y="347"/>
      <point x="115" y="326" type="qcurve" smooth="yes"/>
    </contour>
  </outline>
</glyph>
<glyph name="shacyr.loclBGR" format="2">
  <advance width="635"/>
  <outline>
    <contour>
      <point x="594" y="541" type="line"/>
      <point x="475" y="541" type="line"/>
      <point x="475" y="156" type="line" smooth="yes"/>
      <point x="475" y="123"/>
      <point x="462" y="99"/>
      <point x="426" y="99" type="curve" smooth="yes"/>
      <point x="392" y="99"/>
      <point x="377" y="125"/>
      <point x="377" y="156" type="curve" smooth="yes"/>
      <point x="377" y="541" type="line"/>
      <point x="258" y="541" type="line"/>
      <point x="258" y="156" type="line" smooth="yes"/>
      <point x="258" y="125"/>
      <point x="243" y="99"/>
      <point x="209" y="99" type="curve" smooth="yes"/>
      <point x="173" y="99"/>
      <point x="160" y="123"/>
      <point x="160" y="156" type="curve" smooth="yes"/>
      <point x="160" y="541" type="line"/>
      <point x="41" y="541" type="line"/>
      <point x="41" y="155" type="line" smooth="yes"/>
      <point x="41" y="42"/>
      <point x="83" y="-8"/>
      <point x="177" y="-8" type="curve" smooth="yes"/>
      <point x="215" y="-8"/>
      <point x="257" y="14"/>
      <point x="284" y="48" type="curve"/>
      <point x="307" y="12"/>
      <point x="346" y="-8"/>
      <point x="389" y="-8" type="curve" smooth="yes"/>
      <point x="425" y="-8"/>
      <point x="455" y="8"/>
      <point x="480" y="40" type="curve"/>
      <point x="480" y="0" type="line"/>
      <point x="594" y="0" type="line"/>
    </contour>
  </outline>
</glyph>
<glyph name="shchacyr.loclBGR" format="2">
  <advance width="671"/>
  <outline>
    <component base="shacyr.loclBGR"/>
    <contour>
      <point x="552" y="-170" type="line"/>
      <point x="671" y="-170" type="line"/>
      <point x="671" y="119" type="line"/>
      <point x="532" y="119" type="line"/>
      <point x="532" y="0" type="line"/>
      <point x="552" y="0" type="line"/>
    </contour>
  </outline>
</glyph>
<glyph name="six.dnom" format="2">
  <advance width="261"/>
  <outline>
    <contour>
      <point x="10" y="97" type="qcurve" smooth="yes"/>
      <point x="10" y="159" type="line" smooth="yes"/>
      <point x="10" y="208"/>
      <point x="34" y="257" type="qcurve" smooth="yes"/>
      <point x="117" y="431" type="line"/>
      <point x="227" y="431" type="line"/>
      <point x="152" y="271" type="line"/>
      <point x="154" y="271"/>
      <point x="156" y="271" type="qcurve" smooth="yes"/>
      <point x="201" y="271"/>
      <point x="227" y="243" type="qcurve" smooth="yes"/>
      <point x="253" y="215"/>
      <point x="252" y="168" type="qcurve" smooth="yes"/>
      <point x="252" y="94" type="line" smooth="yes"/>
      <point x="252" y="42"/>
      <point x="220" y="13" type="qcurve" smooth="yes"/>
      <point x="188" y="-17"/>
      <point x="131" y="-17" type="qcurve" smooth="yes"/>
      <point x="73" y="-17"/>
      <point x="42" y="13" type="qcurve" smooth="yes"/>
      <point x="10" y="43"/>
    </contour>
    <contour>
      <point x="147" y="94" type="qcurve" smooth="yes"/>
      <point x="147" y="162" type="line" smooth="yes"/>
      <point x="147" y="183"/>
      <point x="131" y="183" type="qcurve" smooth="yes"/>
      <point x="115" y="183"/>
      <point x="115" y="166" type="qcurve" smooth="yes"/>
      <point x="115" y="94" type="line" smooth="yes"/>
      <point x="115" y="73"/>
      <point x="131" y="73" type="qcurve" smooth="yes"/>
      <point x="147" y="72"/>
    </contour>
  </outline>
</glyph>
<glyph name="softcyr.loclBGR" format="2">
  <advance width="459"/>
  <outline>
    <contour>
      <point x="42" y="186" type="line"/>
      <point x="161" y="186" type="line"/>
      <point x="161" y="541" type="line"/>
      <point x="42" y="541" type="line"/>
    </contour>
    <contour>
      <point x="42" y="186" type="line"/>
      <point x="42" y="62"/>
      <point x="91" y="-8"/>
      <point x="232" y="-8" type="curve" smooth="yes"/>
      <point x="350" y="-8"/>
      <point x="418" y="64"/>
      <point x="418" y="189" type="curve" smooth="yes"/>
      <point x="418" y="289"/>
      <point x="363" y="380"/>
      <point x="233" y="380" type="curve" smooth="yes"/>
      <point x="203" y="380"/>
      <point x="171" y="378"/>
      <point x="141" y="370" type="curve"/>
      <point x="141" y="250" type="line"/>
      <point x="170" y="258"/>
      <point x="199" y="260"/>
      <point x="228" y="260" type="curve" smooth="yes"/>
      <point x="271" y="260"/>
      <point x="299" y="224"/>
      <point x="299" y="190" type="curve" smooth="yes"/>
      <point x="299" y="135"/>
      <point x="280" y="98"/>
      <point x="225" y="98" type="curve" smooth="yes"/>
      <point x="181" y="98"/>
      <point x="161" y="125"/>
      <point x="161" y="186" type="curve"/>
    </contour>
  </outline>
</glyph>
<glyph name="three.dnom" format="2">
  <advance width="261"/>
  <outline>
    <contour>
      <point x="249" y="297" type="line" smooth="yes"/>
      <point x="249" y="243"/>
      <point x="216" y="220" type="qcurve"/>
      <point x="232" y="210"/>
      <point x="240" y="192" type="qcurve" smooth="yes"/>
      <point x="249" y="174"/>
      <point x="249" y="138" type="qcurve" smooth="yes"/>
      <point x="249" y="95" type="line" smooth="yes"/>
      <point x="249" y="43"/>
      <point x="217" y="13" type="qcurve" smooth="yes"/>
      <point x="185" y="-17"/>
      <point x="128" y="-17" type="qcurve" smooth="yes"/>
      <point x="71" y="-17"/>
      <point x="41" y="12" type="qcurve" smooth="yes"/>
      <point x="10" y="41"/>
      <point x="10" y="91" type="qcurve" smooth="yes"/>
      <point x="10" y="133" type="line"/>
      <point x="112" y="133" type="line"/>
      <point x="112" y="122" type="line"/>
      <point x="112" y="94" type="line" smooth="yes"/>
      <point x="112" y="72"/>
      <point x="128" y="73" type="qcurve" smooth="yes"/>
      <point x="137" y="73"/>
      <point x="141" y="78" type="qcurve" smooth="yes"/>
      <point x="144" y="83"/>
      <point x="144" y="99" type="qcurve" smooth="yes"/>
      <point x="144" y="142" type="line" smooth="yes"/>
      <point x="144" y="161"/>
      <point x="140" y="166" type="qcurve" smooth="yes"/>
      <point x="136" y="171"/>
      <point x="124" y="171" type="qcurve" smooth="yes"/>
      <point x="106" y="171" type="line"/>
      <point x="94" y="171" type="line"/>
      <point x="94" y="261" type="line"/>
      <point x="106" y="261" type="line"/>
      <point x="125" y="261" type="line" smooth="yes"/>
      <point x="138" y="261"/>
      <point x="141" y="266" type="qcurve" smooth="yes"/>
      <point x="144" y="271"/>
      <point x="144" y="286" type="qcurve" smooth="yes"/>
      <point x="144" y="321" type="line" smooth="yes"/>
      <point x="144" y="337"/>
      <point x="140" y="342" type="qcurve" smooth="yes"/>
      <point x="136" y="347"/>
      <point x="128" y="347" type="qcurve" smooth="yes"/>
      <point x="112" y="347"/>
      <point x="112" y="326" type="qcurve" smooth="yes"/>
      <point x="112" y="300" type="line"/>
      <point x="112" y="289" type="line"/>
      <point x="10" y="289" type="line"/>
      <point x="10" y="330" type="line" smooth="yes"/>
      <point x="10" y="379"/>
      <point x="42" y="408" type="qcurve" smooth="yes"/>
      <point x="74" y="437"/>
      <point x="130" y="437" type="qcurve" smooth="yes"/>
      <point x="186" y="437"/>
      <point x="217" y="408" type="qcurve" smooth="yes"/>
      <point x="249" y="379"/>
      <point x="249" y="326" type="qcurve" smooth="yes"/>
    </contour>
  </outline>
</glyph>
<glyph name="three.sups" format="2">
  <advance width="284"/>
  <outline>
    <contour>
      <point x="29" y="530" type="curve" smooth="yes"/>
      <point x="29" y="562" type="line"/>
      <point x="111" y="562" type="line"/>
      <point x="111" y="538" type="line" smooth="yes"/>
      <point x="111" y="519"/>
      <point x="120" y="510"/>
      <point x="139" y="510" type="curve" smooth="yes"/>
      <point x="150" y="510"/>
      <point x="158" y="512"/>
      <point x="163" y="517" type="curve" smooth="yes"/>
      <point x="167" y="522"/>
      <point x="169" y="530"/>
      <point x="169" y="542" type="curve" smooth="yes"/>
      <point x="169" y="582" type="line" smooth="yes"/>
      <point x="169" y="597"/>
      <point x="167" y="607"/>
      <point x="163" y="613" type="curve" smooth="yes"/>
      <point x="158" y="619"/>
      <point x="149" y="622"/>
      <point x="134" y="622" type="curve" smooth="yes"/>
      <point x="118" y="622" type="line"/>
      <point x="118" y="697" type="line"/>
      <point x="136" y="697" type="line" smooth="yes"/>
      <point x="149" y="697"/>
      <point x="157" y="700"/>
      <point x="162" y="706" type="curve" smooth="yes"/>
      <point x="167" y="711"/>
      <point x="169" y="720"/>
      <point x="169" y="732" type="curve" smooth="yes"/>
      <point x="169" y="765" type="line" smooth="yes"/>
      <point x="169" y="776"/>
      <point x="167" y="784"/>
      <point x="163" y="789" type="curve" smooth="yes"/>
      <point x="158" y="794"/>
      <point x="150" y="797"/>
      <point x="139" y="797" type="curve" smooth="yes"/>
      <point x="129" y="797"/>
      <point x="122" y="795"/>
      <point x="117" y="790" type="curve" smooth="yes"/>
      <point x="113" y="785"/>
      <point x="111" y="778"/>
      <point x="111" y="769" type="curve" smooth="yes"/>
      <point x="111" y="743" type="line"/>
      <point x="29" y="743" type="line"/>
      <point x="29" y="774" type="line" smooth="yes"/>
      <point x="29" y="805"/>
      <point x="39" y="830"/>
      <point x="59" y="847" type="curve" smooth="yes"/>
      <point x="78" y="864"/>
      <point x="105" y="873"/>
      <point x="140" y="873" type="curve" smooth="yes"/>
      <point x="176" y="873"/>
      <point x="204" y="864"/>
      <point x="224" y="847" type="curve" smooth="yes"/>
      <point x="243" y="830"/>
      <point x="253" y="805"/>
      <point x="253" y="774" type="curve" smooth="yes"/>
      <point x="253" y="739" type="line" smooth="yes"/>
      <point x="253" y="719"/>
      <point x="250" y="704"/>
      <point x="243" y="693" type="curve" smooth="yes"/>
      <point x="236" y="682"/>
      <point x="224" y="672"/>
      <point x="206" y="663" type="curve"/>
      <point x="225" y="655"/>
      <point x="238" y="645"/>
      <point x="244" y="634" type="curve" smooth="yes"/>
      <point x="250" y="623"/>
      <point x="253" y="607"/>
      <point x="253" y="587" type="curve" smooth="yes"/>
      <point x="253" y="540" type="line" smooth="yes"/>
      <point x="253" y="506"/>
      <point x="243" y="480"/>
      <point x="224" y="462" type="curve" smooth="yes"/>
      <point x="204" y="443"/>
      <point x="176" y="434"/>
      <point x="140" y="434" type="curve" smooth="yes"/>
      <point x="104" y="434"/>
      <point x="77" y="442"/>
      <point x="58" y="459" type="curve" smooth="yes"/>
      <point x="39" y="476"/>
      <point x="29" y="499"/>
    </contour>
  </outline>
</glyph>
<glyph name="tsecyr.loclBGR" format="2">
  <advance width="444"/>
  <outline>
    <component base="icyr.loclBGR" xOffset="-1"/>
    <contour>
      <point x="325" y="-170" type="line"/>
      <point x="444" y="-170" type="line"/>
      <point x="444" y="119" type="line"/>
      <point x="305" y="119" type="line"/>
      <point x="305" y="0" type="line"/>
      <point x="325" y="0" type="line"/>
    </contour>
  </outline>
</glyph>
<glyph name="two.dnom" format="2">
  <advance width="259"/>
  <outline>
    <contour>
      <point x="131" y="347" type="qcurve" smooth="yes"/>
      <point x="115" y="347"/>
      <point x="115" y="323" type="qcurve" smooth="yes"/>
      <point x="115" y="295" type="line"/>
      <point x="115" y="283" type="line"/>
      <point x="13" y="283" type="line"/>
      <point x="13" y="331" type="line" smooth="yes"/>
      <point x="13" y="379"/>
      <point x="46" y="408" type="qcurve" smooth="yes"/>
      <point x="79" y="437"/>
      <point x="133" y="437" type="qcurve" smooth="yes"/>
      <point x="187" y="437"/>
      <point x="218" y="408" type="qcurve" smooth="yes"/>
      <point x="250" y="379"/>
      <point x="250" y="329" type="qcurve" smooth="yes"/>
      <point x="250" y="299" type="line" smooth="yes"/>
      <point x="250" y="270"/>
      <point x="242" y="248" type="qcurve" smooth="yes"/>
      <point x="233" y="226"/>
      <point x="216" y="200" type="qcurve" smooth="yes"/>
      <point x="134" y="79" type="line"/>
      <point x="250" y="79" type="line"/>
      <point x="250" y="-11" type="line"/>
      <point x="10" y="-11" type="line"/>
      <point x="10" y="69" type="line"/>
      <point x="127" y="243" type="line" smooth="yes"/>
      <point x="138" y="260"/>
      <point x="142" y="272" type="qcurve" smooth="yes"/>
      <point x="147" y="284"/>
      <point x="147" y="302" type="qcurve" smooth="yes"/>
      <point x="147" y="326" type="line" smooth="yes"/>
      <point x="147" y="347"/>
    </contour>
  </outline>
</glyph>
<glyph name="two.sups" format="2">
  <advance width="289"/>
  <outline>
    <contour>
      <point x="32" y="510" type="line"/>
      <point x="153" y="689" type="line" smooth="yes"/>
      <point x="161" y="700"/>
      <point x="167" y="710"/>
      <point x="170" y="718" type="curve" smooth="yes"/>
      <point x="173" y="725"/>
      <point x="174" y="735"/>
      <point x="174" y="748" type="curve" smooth="yes"/>
      <point x="174" y="770" type="line" smooth="yes"/>
      <point x="174" y="777"/>
      <point x="172" y="784"/>
      <point x="167" y="790" type="curve" smooth="yes"/>
      <point x="162" y="795"/>
      <point x="155" y="798"/>
      <point x="144" y="798" type="curve" smooth="yes"/>
      <point x="134" y="798"/>
      <point x="126" y="795"/>
      <point x="122" y="790" type="curve" smooth="yes"/>
      <point x="118" y="786"/>
      <point x="117" y="780"/>
      <point x="117" y="773" type="curve" smooth="yes"/>
      <point x="117" y="741" type="line"/>
      <point x="35" y="741" type="line"/>
      <point x="35" y="781" type="line" smooth="yes"/>
      <point x="35" y="810"/>
      <point x="45" y="832"/>
      <point x="66" y="849" type="curve" smooth="yes"/>
      <point x="86" y="865"/>
      <point x="113" y="873"/>
      <point x="146" y="873" type="curve" smooth="yes"/>
      <point x="180" y="873"/>
      <point x="207" y="865"/>
      <point x="227" y="848" type="curve" smooth="yes"/>
      <point x="246" y="831"/>
      <point x="256" y="808"/>
      <point x="256" y="779" type="curve" smooth="yes"/>
      <point x="256" y="748" type="line" smooth="yes"/>
      <point x="256" y="728"/>
      <point x="254" y="712"/>
      <point x="249" y="699" type="curve" smooth="yes"/>
      <point x="244" y="686"/>
      <point x="235" y="670"/>
      <point x="223" y="653" type="curve" smooth="yes"/>
      <point x="126" y="516" type="line"/>
      <point x="257" y="516" type="line"/>
      <point x="257" y="440" type="line"/>
      <point x="32" y="440" type="line"/>
    </contour>
  </outline>
</glyph>
<glyph name="zero.dnom" format="2">
  <advance width="267"/>
  <outline>
    <contour>
      <point x="134" y="-17" type="qcurve" smooth="yes"/>
      <point x="13" y="-17"/>
      <point x="13" y="113" type="qcurve" smooth="yes"/>
      <point x="13" y="308" type="line" smooth="yes"/>
      <point x="13" y="438"/>
      <point x="134" y="438" type="qcurve" smooth="yes"/>
      <point x="255" y="438"/>
      <point x="255" y="308" type="qcurve" smooth="yes"/>
      <point x="255" y="113" type="line" smooth="yes"/>
      <point x="255" y="-17"/>
    </contour>
    <contour>
      <point x="151" y="113" type="qcurve" smooth="yes"/>
      <point x="151" y="307" type="line" smooth="yes"/>
      <point x="151" y="333"/>
      <point x="147" y="340" type="qcurve" smooth="yes"/>
      <point x="143" y="347"/>
      <point x="134" y="347" type="qcurve" smooth="yes"/>
      <point x="125" y="347"/>
      <point x="121" y="341" type="qcurve" smooth="yes"/>
      <point x="117" y="334"/>
      <point x="118" y="307" type="qcurve" smooth="yes"/>
      <point x="118" y="113" type="line" smooth="yes"/>
      <point x="118" y="77"/>
      <point x="127" y="74" type="qcurve" smooth="yes"/>
      <point x="130" y="73"/>
      <point x="136" y="72" type="qcurve" smooth="yes"/>
      <point x="151" y="72"/>
    </contour>
  </outline>
</glyph>
<glyph name="zero.sups" format="2">
  <advance width="290"/>
  <outline>
    <contour>
      <point x="32" y="549" type="curve" smooth="yes"/>
      <point x="32" y="760" type="line" smooth="yes"/>
      <point x="32" y="799"/>
      <point x="42" y="828"/>
      <point x="61" y="847" type="curve" smooth="yes"/>
      <point x="80" y="865"/>
      <point x="108" y="874"/>
      <point x="145" y="874" type="curve" smooth="yes"/>
      <point x="221" y="874"/>
      <point x="259" y="836"/>
      <point x="259" y="760" type="curve" smooth="yes"/>
      <point x="259" y="549" type="line" smooth="yes"/>
      <point x="259" y="472"/>
      <point x="221" y="434"/>
      <point x="145" y="434" type="curve" smooth="yes"/>
      <point x="70" y="434"/>
      <point x="32" y="472"/>
    </contour>
    <contour>
      <point x="176" y="561" type="curve" smooth="yes"/>
      <point x="176" y="748" type="line" smooth="yes"/>
      <point x="176" y="769"/>
      <point x="174" y="782"/>
      <point x="170" y="789" type="curve" smooth="yes"/>
      <point x="165" y="796"/>
      <point x="157" y="799"/>
      <point x="145" y="799" type="curve" smooth="yes"/>
      <point x="134" y="799"/>
      <point x="126" y="796"/>
      <point x="122" y="789" type="curve" smooth="yes"/>
      <point x="118" y="782"/>
      <point x="116" y="768"/>
      <point x="116" y="748" type="curve" smooth="yes"/>
      <point x="116" y="561" type="line" smooth="yes"/>
      <point x="116" y="541"/>
      <point x="118" y="528"/>
      <point x="122" y="521" type="curve" smooth="yes"/>
      <point x="126" y="514"/>
      <point x="134" y="510"/>
      <point x="145" y="510" type="curve" smooth="yes"/>
      <point x="157" y="510"/>
      <point x="165" y="514"/>
      <point x="170" y="521" type="curve" smooth="yes"/>
      <point x="174" y="528"/>
      <point x="176" y="541"/>
    </contour>
  </outline>
</glyph>
<glyph name="zhecyr.loclBGR" format="2">
  <advance width="655"/>
  <outline>
    <contour>
      <point x="268" y="0" type="line"/>
      <point x="387" y="0" type="line"/>
      <point x="387" y="707" type="line"/>
      <point x="268" y="707" type="line"/>
    </contour>
    <contour>
      <point x="379" y="308" type="line"/>
      <point x="488" y="308" type="line"/>
      <point x="640" y="541" type="line"/>
      <point x="516" y="541" type="line"/>
    </contour>
    <contour>
      <point x="514" y="0" type="line"/>
      <point x="645" y="0" type="line"/>
      <point x="495" y="343" type="line"/>
      <point x="376" y="343" type="line"/>
    </contour>
    <contour>
      <point x="367" y="230" type="line"/>
      <point x="499" y="230" type="line"/>
      <point x="499" y="350" type="line"/>
      <point x="367" y="350" type="line"/>
    </contour>
    <contour>
      <point x="167" y="308" type="line"/>
      <point x="276" y="308" type="line"/>
      <point x="139" y="541" type="line"/>
      <point x="15" y="541" type="line"/>
    </contour>
    <contour>
      <point x="10" y="0" type="line"/>
      <point x="141" y="0" type="line"/>
      <point x="279" y="343" type="line"/>
      <point x="160" y="343" type="line"/>
    </contour>
    <contour>
      <point x="156" y="230" type="line"/>
      <point x="288" y="230" type="line"/>
      <point x="288" y="350" type="line"/>
      <point x="156" y="350" type="line"/>
    </contour>
  </outline>
</glyph>
